<mxfile host="app.diagrams.net" agent="Mozilla/5.0 (X11; Linux x86_64) AppleWebKit/537.36 (KHTML, like Gecko) Chrome/135.0.0.0 Safari/537.36" version="26.2.8">
  <diagram name="Página-1" id="8QI1uR_8mJQfjlccU0hL">
    <mxGraphModel dx="11623" dy="4489" grid="1" gridSize="10" guides="1" tooltips="1" connect="1" arrows="1" fold="1" page="0" pageScale="1" pageWidth="827" pageHeight="1169" background="none" math="0" shadow="0">
      <root>
        <mxCell id="0" />
        <mxCell id="1" parent="0" />
        <mxCell id="xbliHczLCTZFfjDGBErI-139" value="" style="rounded=0;whiteSpace=wrap;html=1;fillColor=default;dashed=1;strokeWidth=2;" parent="1" vertex="1">
          <mxGeometry x="-2960" y="920" width="1479" height="1160" as="geometry" />
        </mxCell>
        <mxCell id="xbliHczLCTZFfjDGBErI-105" value="" style="rounded=0;whiteSpace=wrap;html=1;fillColor=none;dashed=1;strokeWidth=1;" parent="1" vertex="1">
          <mxGeometry x="-2920" y="1040" width="1399" height="400" as="geometry" />
        </mxCell>
        <mxCell id="xbliHczLCTZFfjDGBErI-88" value="" style="rounded=0;whiteSpace=wrap;html=1;fillColor=default;dashed=1;strokeWidth=2;" parent="1" vertex="1">
          <mxGeometry x="-1040" y="1040" width="1960" height="720" as="geometry" />
        </mxCell>
        <mxCell id="xbliHczLCTZFfjDGBErI-59" value="" style="rounded=0;whiteSpace=wrap;html=1;fillColor=default;dashed=1;strokeWidth=2;" parent="1" vertex="1">
          <mxGeometry x="-1040" y="1840" width="2200" height="640" as="geometry" />
        </mxCell>
        <mxCell id="xbliHczLCTZFfjDGBErI-57" style="edgeStyle=orthogonalEdgeStyle;rounded=0;orthogonalLoop=1;jettySize=auto;html=1;entryX=0;entryY=0.5;entryDx=0;entryDy=0;" parent="1" source="xbliHczLCTZFfjDGBErI-3" target="xbliHczLCTZFfjDGBErI-56" edge="1">
          <mxGeometry relative="1" as="geometry" />
        </mxCell>
        <mxCell id="xbliHczLCTZFfjDGBErI-3" value="INICIO" style="rounded=1;whiteSpace=wrap;html=1;arcSize=50;fillColor=#dae8fc;strokeColor=#6c8ebf;fontSize=15;" parent="1" vertex="1">
          <mxGeometry x="-999.5" y="2210" width="120" height="60" as="geometry" />
        </mxCell>
        <mxCell id="xbliHczLCTZFfjDGBErI-5" value="Fluxo do job de processamento de tabelas com carga batch mensal" style="text;html=1;align=center;verticalAlign=middle;whiteSpace=wrap;rounded=0;fontStyle=1;fontSize=20;" parent="1" vertex="1">
          <mxGeometry x="-920" y="1840" width="1920" height="40" as="geometry" />
        </mxCell>
        <mxCell id="xbliHczLCTZFfjDGBErI-36" style="edgeStyle=orthogonalEdgeStyle;rounded=0;orthogonalLoop=1;jettySize=auto;html=1;entryX=0;entryY=0.5;entryDx=0;entryDy=0;" parent="1" source="xbliHczLCTZFfjDGBErI-7" target="xbliHczLCTZFfjDGBErI-12" edge="1">
          <mxGeometry relative="1" as="geometry" />
        </mxCell>
        <mxCell id="xbliHczLCTZFfjDGBErI-7" value="Verificar nas bases de origem qual a partição mais recente do mês anterior em relação a &lt;u&gt;data de referencia&lt;/u&gt;" style="rounded=0;whiteSpace=wrap;html=1;fillColor=#f5f5f5;fontColor=#333333;strokeColor=#666666;" parent="1" vertex="1">
          <mxGeometry x="-529.5" y="2200" width="160" height="80" as="geometry" />
        </mxCell>
        <mxCell id="xbliHczLCTZFfjDGBErI-9" value="" style="shape=image;verticalLabelPosition=bottom;labelBackgroundColor=default;verticalAlign=top;aspect=fixed;imageAspect=0;image=data:image/png,iVBORw0KGgoAAAANSUhEUgAAA04AAAEnCAIAAAARpoRtAABkuElEQVR4Xu2deZgdVZn/7zCAyjIJ5DGsQjCAqISBgEAAFWUADRHk4kDEISy2aBQDA2iD+CMyaEwacAFlUDpoREnYWllFBYEkIMuABARJMIAImCCiLOPoo1C/1/paL+99T93q231v3aXq+/mjn7rnvGervl316XNqqUSEEEIIIaSgVHwCIYQQQggpClQ9QgghhJDCQtUjhBBSIiplxe8IUhr4uyeEEFIisqVn7733vvnmm31q75M9alJs+LsnhBBSIrKlh6pHigd/94QQQkpEtvRQ9Ujx4O+++MycOdNeriEsWbLEBixcuFCzJk6caLOEefPmmaJ//8Lsv//+siGlECC1aUENlhitYeXKlUhEjG0ORKaTWgphUk8YXzH9lA1N1C4RQkg9KpnSQ9UjxYO/++ITqp4gTpaRK3KGXCtSIGpM9RAJNLER1ZMNlBpW9dQgLVqcEEJSqWRKD1WPFA/+7osPLErdDqJWiX0OllYx3ga3w5ycKprOAkKkhlU9VKIBEo8Uq3p22i+qNU6IZhiGSrQz6IZO76kRujlLQgixyFFidn0mTJhw1FFH+dTep0LVKzF5/e71tF0S/Pi7Cad6UfLbETdCltUplb8oUatwVXRY1UO18ELMvSFlWNWz/QnDrOrplJ4VO3TMjrS0XH755dg/PYf03A+GkJZSoeqRkpHX775U36ouH2yoeqpEqW6EM+4tt9yCDV3MVYZVPfkJLYsSY8PP1AVcyJx2EhsLYzQXWNWzSqqoaNrEEnLBBReMGzfupz/9qc/oeqTP0nPpv88gpHW444aDC7ikeOT1uy/Vt6rLB9sR1UOjkrV/vHqLSbhGVE8jqXqj4wtf+MK22267bNkyn9EjSM+l/zIKn0FIi3DHDQdVjxSPvH73pfpWdflgQ9WDJIkt2ZVWYBUKG+ECrk684SOKwMlU9ZCo9Yeql7qAi06iEghlPdXTBVxroqnmWipOPPHEKVOmPPnkkz6jp5D+yyhkLD6DkFZQyTxiU/VGAQ7aenwGOCArel21BtvDu3tQg0u0JymcLBwLk+uRFFSOs4ZtKDwhpnYeBSu1Z0CNRHE3QHTSbgOdHHHxAFW5uwzDGZYmyet3X8nzW9VtdPlg3Tdbv22RETv9NuP7ja+pRurXDun4uusfpPVFVb0o+cZX4r+fEaleZP7M6qleVP+2jJb/kfQKRx555LRp0/7v//7PZ/QgMgoZi4zIZxDSNJXMIzZVbxToEdsqVGg2OJ6rMFVMlzTRql5qYqrq6cyFYlWvYs5xoeqldl4TrbS5yAzVqwSnqgzVcytdIJxkaYa8fveVPL9V3UaXD7beH0ZGLrLc/xk2y6cmgmVVT2vWqqzqWSTX/flpTIbqpXbP/q2Wh6KKUZHklXQPlcwjNlVvpOjCTqXWyVRxouSQjlydLNBcBCPF1oAU1GOn3BRk2TOOOwWonGm1Lqxe57UzldoTIlKs6jknQ3OoEykuDC3athCvTmlPna2ilXVZWtvLLqfLBxvKnAuw7mXVCuifis2tN9tsVQ/V4us7UtWLkj+PDNWziSD1WFB4ir3cWYwladJVVIJjoIWqN1Jw2NdZq3A2S2Os6uGYb08QSFEHQqJUYk8lFquPUeBwACcIm+XC6nXeFkSi7fawqocwZGWrnp4QtYYoqaSFZ7S8fveu38WmVIMlXUUZbmLo9RtNSLeRfcSm6o0Unfqy/+pHwfpmpdaZ5mU+qEHDJNHOFCg63aATDW5SA93QCQJshNMK9TqPdGuZ+8fzjjbMDRAyh23tnobVUz1U6CZZUiWyGfL63WOEJaFUgyXdQ3keTdK7j4/pcvRMJmcmd7IpMNlHbKreiNAFUN1WiXEmFC7+6JwZLMopncqZbttZLqSomUXDqZ5+1a3qZXReW0ciNubFaPFs1dNIql5BKNVgSZeAhySX54HDZRtve5AzSjjPUXiyj9hUvREBU3HAz9RX3BqlOhCkB18//L9RSRxIZ8Us+hVN1aPUr7F1RPQHPxGW0XlVPe1eJa4nVD0nZGEl2aqHnaMfASrhAm53UarBkm6gnLNc5ZnFJLmSfcSm6o0I2IwjNCFsYyXU2pIWWVL7oIZUCUMWVKkSPGxhWNWz+oiwjM6r6qmn2o6FA1QQjL5pV22YUz0tgp0TJQNx8tckufzuo9y+Vd1JqQZLOk6Zr13rnmsT7UEc4OAenqLCg76mu2B7cNd4e+qqV7mC81PqScKWsnUixU2QRLW3T6VW2LtUMo/YVL3G0W+pptg5KmtCqln6tceXUFddNQZl8U22FoWw8O8ILAyeq2fr0ekxjZmXzClW6nReVU+bDj3VLeDijwjb+oepMRmqZ//WlBZO6UVUvZZQqsGSzsI7UrvkjuPUU05obyA1PjVYTwB6TrISFsZXzMHHNmEVMDyRqOrZLI2PgsuegNPK3qWSecSm6jWOLm5qiirdkvgKvIpRHJ2ssraEbyBqUNULJSwy84LIcjSoelGiYvOSKwXrdd6qHppGJSNVPa0zQ/VsGLBZLaH1NYI8+tq1lGqwebBixYpqtbp48WJsIFE2hoaGagNHgNQmNQwODkqdo6hHSvX19fnUTsPnzIFueI6gO17jAC1Hc5wJ7KmrEh/3U4/vNlhPbzqRMDFGU1y8rRy5OHXh9KMyh6qQjo9QTGwj2J2StSeagm6EM389SiXziE3VI8Ujr999qb5VTQ52YGCgavDZnUMMSfrmU1tEqktZ1WsS9Bz7Vqr12cOR2r0O0g1y0210Vnyduqlg1bO3YVUvSpxsSQzS7RSCi3dqGAX3DCLRrkmFIAtVqcmpMmqYtqUpPU32QKh6pHjk9bsv1beqycGKjgwODmJbNrrHMHpa9ZoktXudokuWLLuQDi5nZ8/qWSBqaksABeupG2RLnU+tq17lWhxV2bnAcJVKgQWiBtSG9HBeUANUK3saHWkqVD1SPPL63ZfqW9XkYK3qWcPQ2T71rWq8yolEGwZBRIpsI6C/vx8BYmyuSBgjWa5mjakmC6mSjo+p/qfBOhZFWtElVNmQj9oWalPDcwu48tF2o5pUntoTqdYm6t6zxmYnUFOn+rQS69y2t+Ho8qZ7bkToTjp1k4pTt0qtvSnhqihIDa4kToZtFMQ2HKte5VGidEjBNlwtQ/XsFUh2DZeqR9UjBSOv332pvlVNDtbN6sFUZMN6GFSpWmt41mkgLhKmAVIcV6pVa+fJwpgokSckanN2Vk90R3WtGhsntoFkIQXNOYsKVQ+R2o0M1cN2FHcABVN7IlnaVeTqRx2j3aXQX2wrukujuBS650ZUbe4KwpHCx4s0QkcePZOqbpGZqNNr6eBSbhbQBitues8CCatXeZT22AjMBaJI6gKui68kHQjtULv0auFeJnsgVD1SPPL63ZfqW9XkYO1UkzqfeIbqhSqXdSxVJScoGgA3Ct0rjImSWT0kqm5a1bNYdQuxVYGWqJ77CFCzLRWiw7G7NKrdD8A2od0bjNGYevskD/DQ4JNOOslnkADZS5X2PmA5Vd2i2jVZq1mp8TZYgWk5rLfVqzxErxGsmFZwW4a999Zia3O3ZaRODfYiGGY9qHqkeOT1uy/Vt6rJwQ4ks3pDZr5N5Q+o6lkXgd9o8cisbAKdBsNHlE2NaUT1rJKGqtefLH1Wgzm/5lVPmrYtup6osFowbwd079kAJ6y2P/aja1r73x44q9cIHZzVy1a9yDweLLSxJcmT951CaS4+2jtt61UezsPZRdjQHeclL2uyq7RaW2qRSnNHua4ieyxUvS5Bv/l2O/zGLkkejOKQbzK+5Ar+QGyKJkbJn4z9iw7/PG2FtifdT16/+0qvfauaocnBWlfrNyuq4SSWtR/xG3URW9xplgLhi+rEDKt62jFsO9XrS9Z8se3qt7Y0CtVzdhX2xFlaVLtWO6JZPd3W3dvBWT3Aa/Wy6ey1esOqnk6eXXrppXqSAKmql3rDLM5k82JsvJuZUzuMgnVbF6mdsdfeQe/0FhBbxN6NWwAqmUdsql6XkKp6leCW8yZVrxI8JE8dzv251ZSJ6aG/i7x+95Ve+1Y1Q5ODta4G15GfAzG1gX93kdC9bHGrOCFQmdSYeqqnkap36GGoeigOoXQKZVuUSFU9Vats1as3G2d7Yv0PcqY7SlrEtu3GkJlAVfrNBX/99a/VC0U5b3gHbj06eAduL4LzUzFurWiG7CM2Va9LqKd6blZb/8PBPydWv2Bveh0CQCX4K7DT4dYLEWlVT+e5kRVe5NDl5PW71z1SBpocrHW1KDYSSEZ/sCRajS/mQ4pKiSs+ECxu2o+pMVEd1YuSdWRbD1zNqd5QsloKQwplqC9ZNba+hQEOZN6Ba3cCguv1xDaB4lrE7itNR4pDc60Lpu7DNsPn6oV09rl6PUoPnZzyI/uITdXrEkLVE7eDkEHvmlc9BFjVs/JnVQ+lbFU2svvJ63df6bVvVTO0bbDVtFsTiKJThkWFcgMovqNA5yF8RvnI3glUvS4hVL1K7RPCG1Q9BaJmU4AN1mVfe32FbV0rD5vrZvL63evuKwNtGyxVb1jCZdmCwSVLLmeTJsk+YlP1uoRU1YvMIySbVz17UayqHv4pko9UveGp9Nq3qhnaNliqXgZYRNa12gLTqRsRugHepEKaJ/uITdXrEuqpXpToml3MjdLcK3sBF8qo8TZYsyq1C7j2zicu4P6dSq99q5qhVIMl3UBHHi/ScfjoGdISso/YVL0uIUP1YHVg1Kqn2whwwf+ofbjbMqz8dTN5/e51j5SBUg2WdAl4wHI7HxrcWco2XpIf2Udsql6XkKF6kXk9zLCqpyAL21A9FMEyrlM9rN5WMh+20itTehFVryUUY7CL0x5ETLqZ8sxylXMWk+RE9hGbqtclZKteOK82CtWLzJtgwilAzdIUW6GbLOxy8vrdV3rtW9UMxRhsF6petc4jUYhShmvXynxtIsmD7CM2VY8Uj7x+96X6VhVjsFS9HqXYd6TyjmPScrKP2FQ9Ujzy+t2X6lvV04NNfbixPhK5WvvQYBs8VPu+smp8d7C+wQJhoo/6zGd9rjJiAG4oxkOb9fnGEmlj0IpNKcNttiOiqM+Z43MESR5kH7GpeqR45PW7L9W3qncH22/eJ6bPH8bLIZAIwYKlSYAGD8XUUz2oGIQPRezLJ7RCTYQOwimtcWo3bKmotidEKZIYFVVeSTeQfcSm6pHikdfvvlTfqh4dLLRMP+oCroianckbjJFc93TiDNVDSuq2lLJzclKnZGFWLyylG65UF641dwnFWO4s9pI06TjZR2yqHikeef3uS/Wt6tHBOmHSj/JT58+iZHXVyVY0WtXT9VylEdWDbmI7irta+LdijJpev4mhDDeakM6SfcSm6pHikdfvvlTfqh4drEiVFSZVt3qzem4izaVA2lL1zm6HyhglNontVNXjrN6I6N1Hk5Tn8TGkg2Qfsal6pHjk9bvv6W/VK6+88vjjj4tPXHLJJV//+tfPPPPME0888aijjjrooIPe/va377bbbpMnT95+++3f9KY3bbXVVptttlnvDtZe9JZxrd6K+OYJCVAFlFI2C3N1jaieLaVkqJ5GVmuv1bMySkLwwOFehA9JJnlTyTxiU/VI8cjrd99D36pHHnnkqquumjt37owZM/baa68ttthCOv+GN7xhzz33nD59+syZM0877bSzzz57/vz53//+92+55Zaf/exn//M//3P//ff/8pe/XLly5RNPPPHAAw/4SnsEeBWwC7JD5g5cu5hrgyOzGtu46kWJSgK0WE/1cE8uYmxX7WIuIYSMiOzTE1WPFI+8fvfd/K168MEHFyxY8MlPfnLKlCnrrLPOhAkTpk6detJJJ4nM3XrrrY899tjf/vY3X4YQQkghyD49UfVI8cjrd99t36rbb799YGDgwAMP3GCDDbbeeuvp06efffbZt9xyywsvvOBDCSGEFJfs0xNVjxSPvH733fCtuuuuu0Tvpk6dus4660yePHnWrFmXXXbZ008/7eMIIYSUhuzTE1WPFI+8fved+lY98MAD55133iGHHDJu3Ljtt9/+uOOOu+KKK5599lkfRwghpJRkn56oeqR45PW7l2/V5MmTZ8yYMTAwcP311//mN7/xES1i9erV11133ec+97kDDjhg/PjxEydO/PCHP3zxxRfn1yIhhJDeJVt6qHqkeOT1u3/ppZfuuOOOwcHBE0444d/+7d823njjcePGjR079sgjjzz99NMvuuiim266aeXKlSO9AeLFF1+8//77r7rqqnPOOeeDH/zg1ltvLXVK/aeeeurQ0BD1jhBCSDbZ0kPVI8Wjfb/7VatW/fSnPxXJE9UT4XvnO9+55ZZbypdvww03nDhx4i677LLffvsdeuihRx999DExH4750Ic+NHXq1D322OMtb3nLRhtt9LrXvU42DjjggOOOO+7b3/72gw8+6JshhBBC6pMtPVQ9Ujw6/Lt/+eWXn3322UceeeSuu+760Y9+tGjRInHB+fPn4w0NF1544cUXX3zNNdcsXbr0F7/4xVNPPeXLE0IIqWX//feX8/qSJUvmzZu3cOFCn116KmXF7whSGvi7J4SQ4rBy5UpRvSgRGvnoIwghJYOqRwghhBBSWKh6hBCSLzNnzqxdSfv76iqyZMNl6TzcvHnzbLrWI+kImDhxouZiJg8sXLgQieHqLdZ2gdZDCCk2VD1CCMmXUPXUtOqpntU4oPWgoAuwqqc+J/GaGKVdo2ZLEUKKClWPEELyxc3GqYqJ1UH1xNtsvM7n6eQfpE3rkYII0CJqdcjSJmyATVHFDGf+CCEFg6pHCCH54lQvSibYRLNSVQ8zdqGEhaoXLsJi9VbSEayVaIsaiQA380cIKR5UPUIIyZdQ9TDrJiluAVckTzUuvHnW1mMXha3AoWYpC+eDyaXWiQCu4RJSeKh6hBCSL3moXmRuv6jUKh3mCO0ib2qdVD1CSgJVjxBC8iVUPYjXkhiVM5ebsYBrE/XCPp3Jc+CCP7sNuIBLSEmg6hFCGuXHP/7xO2Jkw+eR+jhFs/dMpKqevW8DKRAyrUfStTY7Y2efpaLYspXgtgwrf4SQQkLVI4QMz4MPPjh9+vStt9762zGyIR/5EuoGsdfVKXAst4CLdLU3i9Zjb8tQUld+tXJ8fDU6gVN6hJQBqh4hJIs//OEPJ5100jrrrDNnzhybLh8lUbIkwKaTkFD1NCtV9ZAVPiHZzg6+WiCZFMRKrrv2DgG6Fmyn/cIFYkJIIaHqEULqcs4552ywwQaf+MQnVq1a5fOiSBIlSwIkzOcRQgjpDqh6hJAUFi5c+Na3vvXggw++5557fF4tEiBhEsxZIkII6UKoeoSQGm699dZ99913t912u+aaa3xefSRYikhBKe7zCCGEdA6qHiHkH/zqV7866qij3vCGN3zjG9/weY0hBaW4VCJV+TxCCCGdgKpHCIn+9Kc/feYzn1ljjTVmz57917/+1WePBCkulUhVUqFU67MJIYS0l7xUT2/yKgl+/IT0Dl/72tc23njjvr6+X//61z5vtEhVUqFUK5X7PEIIIW0kL0epjoTHH3/cl+8pqHqkRxkaGpo8efLUqVNvv/12n9cKpFqpXJqQhnxeKZH9IEc8n9pNLF68WHq4YsUKnxEj6V3ef0JISF6OIoeD3zfAqaeeeu211/rCvQZVj/Qcd95557Rp03bccccrrrjC57UaaUIakuakUZ/XCfr6+uy/mtkaKnIj8T61rFD1COlF8nKURlTvW9/6lnuZY4/S5aqnS8z7779/+AJ1UjZ+85vffPSjHx0/fvy5557r8/JEmpNGpWnpgM9rL6Juixcv1o9ysBoYGDD5NVD1LFQ9QnqRvBxlWNVbunTpUUcdJRu+ZA/Szaq3cOFC8enU92ySsvHyyy+fccYZa621Vn9//0svveSz80calaalA9IN6YzPbhdO9aL4eIUUqAyQbaxmAuigTUFZSR8cHOyLGRoakgFKigbIRxuMAN2QgsjVmUWNR5gD67+uSL2AqLa3GKD8lH5quzJG7S0WbRGgG1qhFImS/aPVWkVGSrVOz7UVejMh7ScvR6lmqt4zzzxz3HHHFeY1292seoSACy+8cMsttzziiCOWL1/u89qLdEC6IZ2RLvm8thCqnogIzKmaKJF8hJTYWT2IDpRI1AdOA4lBIsQIVSEdtQ3EIEBVr5r4k20LKVHcSSdzECxsq3LZANSp21Hcrn5UgdN2IXyI1OFY1avWCm6UtItI2wfbW8guthVNgeDWZhJC8iUvR8lWvXPPPfeCCy7wZXqWxlXPvtSyEry23K6u6qsqIcQ2wL00E68ocK8/tyvj+v7NcPXWFkk1b/vGTKCVSLsuyxYM3+wZvljd5rrW3XAwN1mprQRZEmnbMnW8urdXxmgMkFI6BG3dvjD+1VADho/OAPfK0S7k+uuvnzJlyj777HPzzTf7vM4hnZEuScekez4vZ1JVT/xDZMU6ioStiFHVG4zRANiPalxkTK7edrgBVBYVdMmlWPlznYlii3J2qEDLImNy9bbDDYCdpvUAtCjpdix2j4VIn0MRJITkSqOOMlIyVO+GG2745Cc/2eSzu7qKSotUT98rZROd6oUKJaVCL7Gqp4n2vVVhPZXaUiBUvUpSz0hVr2JWkFNztXUrUqBx1VNps4nDqp52rBHVS90n2quu4r777vvABz7w5je/+Xvf+57P6w6kY9I96aR01eflRqrqibJglsviVG8gWYVUkKjKlap3djvcAGgrSmbaQGhyttuhM8FNbUpU+zCEqI7e2e1wA2So3lCtIrsYMGRWlql6hLSZvE5R1TqqJ2fKI4888v777/cFepnGz/RQPTuDBaVAus4PQUFsMHxCgp3xwFcQr8URZquCndj5J9ei2tXK2pk/FFRHVFWNTM02XoFpqUKpVKFjGa2rY7kxDqt6qFMDEI9EW60Wj2ptFWMMwzAn6vZnxfwS8TGcs+wszzzzzKxZs/7lX/7lrLPO8nndh3RSuiodlm77vBxwqqdq4pRFc9V4wom0qKWqZycIRzerF44L8tfZWb3BZHUY2+FOJoTkSqOOMlLqqd6cOXMuueQSH93jWDPIpp7qifQgC4n4CM1KVT1sayWhfygwFUlX6YnMjJetBAFqdcCpnpqQTok1qHpR0hOJz24dAwyrHVb1UL+2iB3YiOrpAnfUgOphh9huoBI70o4zd+7c9dZb74QTTnj22Wd9XrciXZUOS7el8z6v1VjVg7tAoawbKVZuFpur5ZTWqp5WVQ1m9WzrqV0dSi7Ii2Kjsj0fjCcLozp6Z7fDDZCheshVDe0PrsazeieRVD1C2kyjjjJSUlXviiuuOO2003xo7+MEIgOYhyKOAreQdKgMpAoykap6ug1Sa7YKVUksBMqC+lPtxDkNcKoXGSdTvwROzkLV00azW0eLrhtRA6onBdVrsVelSKh6SmQmJtX5hlU9Hb4GhEU6yHe+851tt9320EMP7dGJc+m2dF6GIAPxea2jr/a5ejYLOgVUxfrju2IhKEPBQmQLVQ8ipZU7YYpqW1dbtUDpqsmNrgPJijM2ojp6Z7fDDZCtepFZKU41OZubGkAIyY+8zk/VQPWWLVtW7f0XY6TS+Gk+Q/V0agraIR/rqV5UewkdAiJz+0WlVumgR6o1ul1Ptmxib6keap4Xg6wGVS8yE66aC3pF9W666aa99957r732uuGGG3xeryFDkIHIcGRQPo+QNvKLX/wCf929iHTej4eUlbzOT6HqFePFGKlUGj7Nq09oiqqe5sItokSzUlUPIN45FkqhQit/SmQWcG3BUGKiQPVUa2TDelJIqHrojPzMbh1hYbVoLlS9KGkLRdDo/vHSbZRUa1VPi0e1qqeVuDCneqGJppprO/nlL3/5oQ99aKuttrrooot8Xi8jw5FBydBkgD6PkHZx9tlnh4ejLkc6LN32qaTENOooI8Wp3re//e0CT9o7gcggW/XUzCA0qao3L75pF2Uxd4XZLK3TmgdKOeBtThNRVSUYiFM9lELlI1I9BDfSukaqTi2JrwtUQcTw7TCt6qmroXjjqhfVmrHGONXT7ukOx8dwGrINPP/885/61Kde85rXnHnmmT6vKMjQZIAyTBmszyOkLey7775f/vKXfWq3Il2VDvtUUm78qb1VWNUr0osxUrFmkA3MQ5mZXBxmlaWS+FA91UtK/wNJUf9QZiYLwXa2SdXQtmVRpVPUnCxWtsJ0kFq/zsml5mrrYaN2h4TpVvWcioWqpyyMqRjVszFIiQLVi9K60ZEpPTmgjxs3Trr31FNP+bxiIQOUYcpge+h0S4rE/fffv8Yaazz00EM+o/uQTkpXe/RSXZIfjTrKSFHVK9iLMVKxZpBNtupFZlEyqqN6TrCgIM6c7KSgdRQ3MabVukSL0xrrNCNVvdAjba5r3Rmt5todqBVa1XP7c0SqF6XNboaqF9V2z64pt4fLLrts0qRJBx100N133+3ziosMVoYsA5fh+zxCcmZgYGDq1Kk+tfuQThZ4AY2MmkYdZaSo6p133nlFejFGKtYMCMmPpUuXvuc973nb29521VVX+bxyIAOX4ctOkF3h87oD3MPrHoPS0/Snvegsiu/2tbfoFp599tnnq1/9qk/tJqR70kmfSkjeqle8F2OkQtUjefPoo48ec8wxm2666fnnn+/zyofsBNkVskNkt/i8wjFQ++TkNjMYvy/Op5aSn//852uttdbDDz/sM7oD6Zh0TzrpMwjJVfVWFvHFGKlQ9Uh+/O///u/b3/52+Y7ttddeL7zwgs8uK7IrZIfIbtlzzz2fe+45n10gOqt6qU/vKy1z586dNm2aT+0OpGNtePw46VHychRRvUK+GCMVqh7JG87qWVo7q6ePHdZnGocpkXkI8FDy/jT7Egh9trB7BDGqShUmPJm5mrwVAzXoM5xRs8ZUzes0+mIi80Tl1IVU+7xllcXUoUW1bxBBH5CIYB1mX/xWDKTY4Wu1VTPYAfMAZ6QUgL333vu8887zqZ1GuiQd86kdQi+Mttcxh9d22yv4ba69IhwXi7vLshGAC6ZTb0DUDuCjXlptW3TPagDaDfTcPpOhklzVjeu/7RXeej23iweoyl0snnplvLuUv2K8wl28PoobAfNyFPnz/uxnP+tTC4r9lRCSH7xWr+XX6rl3QkS1rxfTd3xBcZCo7jKs6lWDl5spAzHYhh6hBhiYfe+ZndWDPCFdhczVBmyuSmQ4WMV5myDBdsgQOLVMW8TuMbQrLbrXgRSGe+655zWvec0jjzziMzqHdEa6JB3zGR1CvST7Nr5KYjyphoSsRlQvMrct2rZUNFWhUh+kYKVNE4dVvYrp1bCqlzr28D7FUPUqiZ52teoV8sUYqVSoeqSN8A5cn9cEVomACIrOS8kGPlpDanxWz9VssVlQq3rvHHOqpy3adCnrHM7mRsbe6nXJti5VudtKtDNWeXX4do9FSdPW/wrGnDlzDjzwQJ/aOaQz0iWf2jl03ktNJQoeYgplWRKDbVUfO23WoOqpbCHMltLnM2hBG4O21BE1JbVaoEKmtbkwN6cYJYNV9VQj1ACAmnWPISYc7OjwjbWKUVhn7xL+zgjJGz5Xr1UMJQud+NhX+4ZcWI6dM2tc9eq5DoItjaveYDJNaNd2q8EartMvOwOH+FdDE1AEdouUgWQFtposAfeZdV6t06mhdnIwXtWttxN6mne84x1dcimFdEM641M7B0RHRMpNrVnVUxkSrYH32Kk1lb+oYdVL9UhsI0wCnHriI1pH/dphrTZD9WxWturplJ7WEBnTtYlO9XQ/rEyep9uNqucGVmxKNVjSPfBtGS1EZ6GcJCHLrkVabRqd6kW1s3pgpKrn5u0cLhezevoxdcoNwxlMbrntTxavsZ2heqmzevpRwuzeKwZ333336173utQrrtqJdEC60VWz+6pWMB6d9AkXMSEuUC6nUwiQGhpUPS2iMap98CeND2f+NFi1T6tFioKyKmQ6I5itemjXumwUKCxwqhcZI0QlyiicLy9HqZTJfko1WNJt8B24LUHXQFPVRKe1sA3FseuhmABDYiOqZ0UKZKie1TvdTtU1xfYNNduJt3DBVxM1XTuA4hmqZ3ti29WUcH8WAPkn5OCDD/ap7UU60G3/5qkA6TbcxameU67mVU8n7dQ1NR6aZcvaeHVB1Na46mkkVa8slGqwpDu56aab9t5777322uuGG27web2GDEEGIsORQfm8VjNkblNViYG3ASgODEZTdDJPI7FYichQ9ZDl6DMrxStibJialja9IrkDV2PQKHDiGKUNLUxx9JunJWu70s/sWT1sa81wyjCleMi3tIMvCJCmpQM+taOo5VjgQHb+DOkQHXiSdRdduNRcp3qoxKke6pdEWBRc0xkSQJZTQ20oVD2noVbIUImz1dQFXFVMgABrdVGgenY/uMGOgrwcRcdZBko1WNLNfOc739l2220PPfTQHn2epXRbOi9DkIH4vK5hMMan1kfcSJWIFIk77rhjvfXWe+yxx3xG/kij0rR0wGd0lFS1guVY1dMZvsgIjfocjAdagwrVk6wXOvuBYKl72aoccDJVPe1AJe7PiFTPqm091YsSsdOuolonf1GgeiiV6rWjIC9HseMsPKUaLOl+5s6dK6eBE0444dlnn/V53Yp0VTos3e7yx8Bi7i11Sqweg/Gtrz6VFIIzzjjjkEMO8an5I41K0z6100BW7LokfGVJstypEmZnwqA+DleDxc7YWftBnZWkWjsrBuwEm6pelHTbaqhVPQUFnZBpTIbqqdpa3JReVEdMkRU6dG3R4RlxgQYZRVd6l1INlvQEzzzzzKxZs/7lX/7lrLPO8nndh3RSuiodlm77vO5A1yJH6nmk8Oyxxx7f/OY3fWqeSHPSqE/tNKFaReZGV6d6GgzjCVUmNCcAz9MiVvW0EsTYKUCgVUmjVvUQCUMdqepFiYyGHdYAmxhmKU71dF9FafvHlGuIERdokFF0pXcp1WBJD3Hfffd94AMfePOb3/y9733P53UH0jHpnnRSuurzCOkFbr/9dvlH5YknnvAZ+SANSXPSqM8oCm5FlbSEvHZlqX5JpRos6Tmuv/76KVOm7LPPPjfffLPP6xzSGemSdEy65/MI6Slmz5797//+7z41H6Qhac6nEpJJXo5SKvsp1WBJj3LhhRduueWWRxxxxPLly31ee5EOSDekM9Iln0faQurDVkgz7LbbbvPnz/eprUaakIZ8KiHDkZejlMp+SjVY0ru8/PLLZ5xxxlprrdXf3//SSy/57PyRRqVp6YB0Qzrjs0kTjMjeRhRMGmHp0qVjx4598sknfUbrkMqliVa9/ZmUirwcpVT2U6rBkl7nN7/5zUc/+tHx48efe+65Pi9PpDlpVJqWDvg80jQjsrcRBZMG+exnPzt9+nSf2jqkcmnCpxLSAHk5Sqnsp1SDJcXgzjvvnDZt2o477njFFVf4vFYjTUhD0pw06vOKQn/yRlp9MwQeO6zPScZjhIfid6zhwcuSYp/MjFJ4mIstEsbgQcraoqsHz/DTZztbpdMiUlzTbYvh85OraQ9/JvV429ve9q1vfcuntgKpVir3qYQ0Rl6OUir7KdVgSZEQ85g8efLUqVNzuqFPqpXKpQl9q1ghEVvShyqLQmGw8Co1PKgV3leBADgWAqBuKG4f5pIaA41D2EAMIq3VqbT1J29g00gk2jd5aIuSiGBtlIyIW2+9dcMNN3z66ad9RnNIhVKtVO4zep/wYXIuwD7xJHyGsD5LrxI/nSR80AmK40ko2pZ98p8+xwQxtsJK0qLdBgiTelw8QFX1HhMTBQ9PsVk54Xdrq6gEv7CC8Ze//OWll1567rnnVq1aVfjBkmLzta99beONN5bT/K9//WufN1qkKqlQqpXKfV6hwZRbFLzlVvaGyJN9Xax76wbmz9QUM2K0ici8fq3emuxg8voya28abF/yFpn31Vr/IyPiM5/5zOGHH+5Tm0MqlGp9aiEIVa9inloX5upLJpxIVUaielbaNHFY1auYjg2reqmPTYZihg/Jo+p1gD/84Q/Lli27+uqr5RQlR72PfOQjhxxyyLve9a4dd9xxiy22WG+99dZaay0Znfxcd911x44dO378+H/+53/2tRDSU/zpT3+Sc8kaa6wxe/bsv/71rz57JEhxqUSqkgqlWp9dUAaD19FiAVcDMF2HBVyk6BqrgnRso2xqTCOqZ193K/EuVz86lbS1oSyFbxTsvPPOCxYs8KmjRaqSCn1qUXBPJIb6wOfcI5FV45yTaVWiZY2oHn4iF/FIsdXaab/IqJ4+1tiF4VmAqqFaRJ1S5ybDstIuVS93Hn300WuuuUb29YwZM3bZZRdRt/XXX3/77befOnWq/G7mzJlzwQUXXHbZZTfeeOO99977+OOPv/DCC3/+859feeUVXxEhvc+vfvWro4466g1veMM3vvENn9cYUlCKSyVSlc8rLnZt1M7qWdWrxpNqVvWcZjmgWakxw6reYLLUi22d1UNKZErVm9UDdvmYNM7NN9/8+te/fvXq1T5j5EglUlVXPRGztTjV0+cni/1YAwOQPzt75ySpEdVDin1Lh43JUD2EIStb9XRKT2uIkkr0RR3WC9tAXkLmBtk9rFq1Stzu9NNPf+973ztu3Dg5Lb3nPe858cQT58+f/7Of/ayH3hlKSE7ceuut++6772677SZ/KT6vPhIsRaRgIa8oysa6V9XM6oXuZVUPtz5gO0TCFseEMfVUTyNV76J4NhHb/fHtIEjMuFbPXVXZF6872xTSCKeccsp//Md/+NSRI5VIVT61QDjVi4wS6YZmqVHBpUJbakT17KvPxLokEcKXuoALmcO2rTxb9VRJ8RFoEfs6EBeTH3kJGXZHl/D0009feumlxx133A477DBmzJj99tvvtNNO+8EPfvDUU0/5UEJIjByS3vrWtx588MH33HOPz6tFAiRMgt2/wuVBlzur8Wqpqt5gsqqrXmVVDx9twci8bFe1LIxJVb0ouREkrEer0kR7yaDtPKoNU8go2HHHHS+++GKfOhKkuFTiU4tF+1VPF22xMS9GY7JVTyObUT181CYqbZGlvNpoT+8zeOmll6655poTTzxR/lTGjh174IEHnnXWWQV+1gMheXDOOedssMEGn/jEJ1atWuXz4jlyyZIACfN5pcct4JKycdNNN2200Ua/+93vfEZjSEEpLpX4jGLhVE8NT7PsP5CqUBoWXuXm5MmuuqrqIVFXckPVc/+12rZQSbbqpZooKrHmqmKKpnMlLyGrdEj15H/cz33uc+985zvXWGONffbZ5wtf+EJOT5EgpCT84Q9/OOmkk9ZZZ505c+bYdPkoiZIlATadAKoe+dSnPjVjxgyf2hhSUIr71MLhVA/qg/kwGFgluC3DzrRZncKaLCpUeUIY6lfVg4pp8RGpnl1+rad6WsTdloEATYyS5npY9eQc8MY3vvGggw767Gc/e+mllz700EM+okXI3l+0aNGJJ5641157rb322m9729s+/elP//CHP/zzn//sQwkho+XBBx+cPn361ltv/e0Y2ZCPkujjSAJVjwg77LDDJZdc4lOHQ4pIQZ9aRKBfjoxcXRVVXXNZ9dK1NhgbsmBdoeq5stjWGUSNyVC9sBuVxDhdE5qeK3mpnvDwww9ffvnlp59++sEHHywnhte97nW77rrroYceKip2/vnnX3/99eJ/I30Ww+9///u77777sssu+8IXviAeuemmm2622WZS/xe/+MUbb7zxhRde8AUIIa3jxz/+8TtiZMPnEUICfvKTn2yyySZy5vIZ9ZFgKSIFfUYRcTLnrm+Lah+h7Ga/dJ7P5ep0YKW2Qqt68C041khVz80vRmmqZ8OAptsRVdrieVGuqucQD/vZz34mu0a07Nhjj91vv/223Xbbtddee7311ttiiy123HHHd73rXYcccsgRRxwxY8aMI2OOOuqoww47TPa1OOI222yz4YYbjhkzZqeddqpWqyeffPKll1762GOP+WYIIYSQruGkk046+uijfWp9JFiK+FRCmqB9qleP559//vHHH7/33ntvuummyy+/fMGCBVgh+laMqOEPf/jDO+64Y/ny5c8884wvTAghhHQ322+//aJFi3xqGhImwT6VkObovOoRQgghBeaGG27YfPPNh72BSQIkTIJ9BiHNQdUjhBBC8uU///M/P/zhD/vUWiRAwnwqIU1D1SOEEELy5eWXX37zm9982WWX+YwEyZIACfMZhDQNVY8QQgjJneuvv36LLbZIfVKEJEqWBPgMQloBVY8QQghpB8cff/xHPvIRnxpFkihZPpWQFkHVI4QQQtrBX//61ze96U1XXnmlTZSPkihZNpGQFkLVI4QQQtrEtddeO2HChJdeegkfZUM+SmJtFCGthKpHCCGEtI/jjjvuYx/7GLZlQz7W5hPSYqh6hBBCSPv4y1/+ss0223w/Rjbko48gpKVQ9QghhJC2ctVVV2211VZvfOMbZcPnEdJqqHqEEEJIu/l4jE8lJAeoeoQQQki7+ctf/qI3ZxCSK1Q9QgghhJDCQtUjhBBCCCksVD1CCCGEkMJC1SOEEEIIKSxUPUIIIYSQwkLVI4QQQggpLFQ9QgghhJDCQtUjhBBCCCksVD1CCCGEkMJC1SOEEEIIKSxUPUJKSqVpxowZM2nSpAMOOODjH//4WWed9cQTT/g2CCFkJCxcuNAeZFauXIn0iRMnaqLEIFFykTJv3jytAZFLlizRXEUSESMbNv3rX/+6/aggeObMmZoi264hZf/999esboOqR0hJqSQHslHz3HPP3XfffVddddV5553X19e33nrrifZ997vf/dvf/uZDCSFkOMSWrDxVYtULja2SKJfNclKYoXpW3UCG6jmfEyTFNmSxIthVNHusJ4T0KJWmVc8hhieeN23atHHjxs2fP99nE0JIfXQ+Tyft5s2bJ7oG/1PB0jAnc6pZoeohHeh8nk4ESoU624e2bAcQDI90k4jakEZ27cRey471Q0ND2AVkWPy+I6QT5PdVXLp06ZQpU97//vevWLHC5xFCSBrQLLsUGxm7UhuLTCRyRbmQgphs1cOUXr3pN6d6qMp2ySqdVT1UWwrVkyO7TyUB7mtHSKfI+6s4Z86cNddc8/zzz/cZhBASAC2zSheZSTibCN8Su1KZU+eL0lRP0VyVOYdTPZSyXUJ/bEMWXUTuNlp2rKfqNUgl5/MrIQ3Shq/ilVdeOWHChHPPPddnEEJILbCl0alelMyriaV1SvU0pgtpWeeoeg3S5V8IUh7a81V86KGHtt566y996Us+gxBCDOFqaWQWcO2EmVvA1UMZtnUxN3UBF7kjWsC1Xpi6gItE+F930rJjPVWvQdzXjpBO0bav4ooVK7bbbruBgQGfQQghCXpjrM6iZd+WsTIG2y4LlaSqnt5poQI3itsyEGCv1Uv11O5hNMf6t6Wxyy67TJgwwaeWmBNPPNHvuBj3tSOkU7Tzq7h06dIxY8YsXrzYZxBCSAJEymJ9zgKpCmVOF1VTF3CtolnqqV5qsN57YVUvdaG5exhNt8aPH3/DDTfcSepz/PHHU/VIl9Pmr+KCBQt22mknn0oIIQbIFrBLola51MxC1VPlylC9KHi0nhYPVS+qDbbzdlb1oqRsd96EO5pjvaje6tWrfSoxnHPOOVQ90uW0/6t49NFHn3DCCT6VEEJInozmWE/VGxaqHul+2v9VfPHFF7faaqvrrrvOZxBCCMmN0RzrqXrDQtUj3U9HvoqDg4MHHHCATyWEEJIbWcf6s+qw3nrrzZ4926eWmEceecTturxVL7wEIbw+wF7ZED5DyBT9+8UHuHHJVqJXIdi2cBcS0CsqcKWCxgDc06TbWgopYf8BqtKbnipp41JcJakXYaS+mjq8c77SxXdO5UelFV/FUbDlllveeeedPpUQQkg+ZB3r5UxwEhmOsWPHdoPqgYxclR57OzpoXPVUkmzisKpXMUPGx9QeVuKq7DW5ihZXrA6CerdW6YW9mpXqf1S9tjF37twjjzzSpxJCCMmHrGN9p84EvcXWW2/dQdXDR5UqSEy9pxBZJ1Ork6oaUT181ADE2/uPUK2d9rOqpyLlwmBsoYbqPU346B53qcPXdImXsvWegYTW0Vv8tPUgharXNl544YV1113XflUIIYTkR9axvlNngt6iG1QvSpxJrEWz1JYi82xxVTTNAsOqnmRZScJHVJuteloQWS7MqR4qtGKX2mGUCtd2Q2mzkcjF8q5dKUYKVa+dfOxjH/vyl7/sUwkhpHwMDQ3l/YT5rGN9B88EPUSXqJ5OoemGCX/VaaA1bpIsakD15CMqwTopKglVT5FS6IkUVOfTsHqqh0bttXThSCNjrjYxSiq3jqt9iEzl2iI0FH0Iays8bq+2k0WLFh144IE+lRDSOaqGvM1jREhnRIZ8avfR398/uqfEU/V6gPKoHmqWsgheklxXN6zqRYmcad86qHo6HGzMi0mtrfC4vdpOVq9evf766/tUQkjnEMNbsWIFtvv6+gYHB2vzOwZVr3myjvUdPBP0EF2ievAVcSDNUp2KjBshDOpjsRNvQMVI3UgT4YuREbgomK6LajVLK9FqEeNUL3S41AVcdKDeAq41Rd0tmitNq++i81S9jrDzzjsvXbrUpxJCOoRVvcEYTQfwGPEScRrJRaINkyxNkRgXMGyKtF6NW0Ei7EdjqnH3NLea9McihqqJUidqkJ+yLVlSRGqLkhFhW8iuM4qrRS6MU2IkBYOtJp3XGCGKu40AtKK5Vuk0XrtaL1LR3V5NuorOaIDdA5asY31nzwS9Qjeons6WwVcgTKpHeq/DymSmrWLsamV8W4ZWCG/TMG0LtUGPtHjjqhfV3jNbT/Xq3ZbhPEzDNH1J5m0ZkD9VPS2OvlH1OsJJJ5105pln+tR8wK9b/zfAN8Eh3wp8nxX3D4b7K1P0jwJouv3Ch/+WRHXuhbcB+gUG9o9LcWNBDa6gpis2y86CR0HZhTE2pZKM0e4u3Vej3huk41RrZ/VgDHCaKPGhKFY92ImWQmTVyNNAjA2wNlMvBqqHSrCN/gyYWT0tIilWcUA91dOqIFIajGqz64TXRqZL2BUopbsFkdo6DBXbkqj9192lrSNRawsjFds9tIvOUPXaQWdVz6IH0NRcPda7Y7Fm1Uu3qqdnO8hTqHqKlHWqZ2PqqV5Ue/4A7oxbL8z6nMWd4NE0stAuVa8jzJ8//+ijj/apOWBNBSnhl6SSpnqVWinRP5DURAXpYVWapYQKVTGVp+biS24JxzLP/OdmQVn9E7bol98KGaineqla3MzeIB2naoAYiTSovUWJyjgfGoxBcZUMtRwNEGxVUVoMXEoTMTEW1VnAdcGgnuqhhxnbIKxTUuxg0ZN6duVUz1Wu6WENQ2kLuDp8m2I1Lrszjqy/N/41NkKXqF5oKvYc4P5xd8duzbVHZK3Qql6USJKNb1z1tN0M1dNE4LIs7rSkddrzjd0tVvVsz6l6HeHqq69uz2sz8LvGT6tK+DZab7MxyHX/qEyM0W9RZC5pxUd8XfV77ian3ZfZdUC/z+iAK6Lfai0ObAcQs7+5igMxGBe+4YgPG10Zg21tFJPl4Y6Kku7ZP7qoub1BOo4anmrKULJGqUD1rLSpUWlxCJMFtWF2zU7auZgGVc+W0kQwatWrVycmzywZduVUz/YZY9canNvZjy5SY6K4IexhgP7X64zDHzgsleCwQkI6onqENE9nv4p33HHHrrvu6lNzoBIrGv7xsL4SGoxVPTiQqh6Ki524fwycOQHUY1UmFEdNDDswM7nzyf2CkOL+bbN2pa041UOM/vdVqV0LRu7C5PoHN5YorZ9RHV1rZm+QjlOtdTUsDrqpuCi5Vk8/qjBpcWxrgGMgJkqLGVb1tGNhsBYZqepl17midlYP1LOreqpnZ/h0Vi9Vl8NIjUGK1TjsFtdDql5eUPVIj9LZr+Kjjz46YcIEn9pqYBUwM9iJywpNy2InqPDRKaM6WcXYjMoTPkbBxbUg7IDKVqp1WRNVsmf1FHhVqmOhlLSI+sPpbTvGStIrnQ6smCLN7A3ScayrDSbrrdW0K8Y00XqSLW6VxaEzWGFMhuoh0gYMxjcoaDBQj4zi/jSuekhJrbPPXFQHMlTP6l24jbawrRvY1n0SRipDwbV62NZfh/3VOLL+2Pin2AhUPdKjdPar+OKLL6677ro+tdVAX2BCTpVC03KqZ6e+kGK3Ndd6FSyqQbkJOzBq1bMsqX2ZYSUQ05aoXlR72Z8mjnpvkI5jXS2KDUZNCMAzhuJZvf7kxlgVi7C4FpT0AbMuWS+mnupBaxCj9WBDg5Wkvldvaw31zm03Xidy66keTAsxVvW0/xIZDqoaKx26mhppgYwC3dvarlTCWb28oOqRHqWzX8X2qJ5qh6KzTaFpqUup3CDdOo3ilEtjJD10plTHqteBeXXeaoP6UxdwFeRal0KdGLV2MqxBWtRJQZsbpfXTovvKdmwUe4P0ClA9n0q6m6xjvTsikFSoeqRH6exXsQ0LuGohDpsbmhYczhoSHMiBgvYSNHWm0H7w0U2YuQ7okihKYVvrRx9CPUKjzv+s6uk2YhAfNhqZ3aX9XFL/tgw7cK2/mb1RPOS8cMEFFxx++OH77LPPpEmTxo8fL6OWn7ItKZIuueG5o/uh6vUiWcf6SkfPBL0CVY/0KJ39KrbhtoxwPskuJoYGY1VPDcmpkssK10+xsIuqLKGlqQNZUq97U5zSRQ2oXmTWhaPhZijDbltXU9wCMYiCKcbKSPZGYZDTwaxZs7bbbrvNNttsxowZCxYs+MlPfrJs2bJVq1a9/PLL8lO2JUXSJVdiJFLiw5NI10LV60WyjvWVjp4JeoXOqp4eOu2xXich9AhuE3HwBfY84Q7fqTMQ9QJclm1Xc7VdnHgwAaDngHB9R2Ncoqs8qj31aqIOzZ6/QequKCGVln4VR8rVV189bdo0n9o6Ur8Vdo0yW/U0eKONNqoEaoJv17zk+jbFtqUTZpXgTlUQ/k3VMzZgs5RGVC8KJtK0zkrwV2C7jdywnysDx0XZZvZGAbjvvvuOOeaYdddd95RTTrn33nt9dh0kUuKllJSVGnw2Ia0g/fABKnUOLsTSJaqXKl7Wb1IT9TzhTiqVBlSvYk6TLn0UqheecTUmI9HlarsYDk7PoeqhHpdYQiot/SqOlLY9QpmQNtDf3y//FXz+859//vnnfV4DSCkpO378eE6YkTzIOtZ39kzQK3Rc9aBrOuuABRq7UBWZCQz81OKqem6GY2X8tjQNi4IpEP0fHU1gu94kmcsNVQ/d0ABNUauDuqntIdGS2j3bxLC7ooSk7sm20c4XoxGSHw888MA73vGOww477Nlnn/V5I0RqkHqkNqnT53U9uA/UpixOeyxf3vQnD5/DHcQ+uzEwlqH4AXipN7T2HFnH+s6eCXqFblA9iAtUCatO+Kl+g4+idE6qnOphWyu3OJeKaq9bR9lRq57tLRrSUaAIEqWgG5eis5L4iGoxFqd69XZFCdHd1RF23nnnel82QnqF6667bs011/zKV77iM5pAapM6pWaf0cWsWLEitLrOql4z6FPunLy2gZx2WtaxvrNngl6h46oHj6kkS64wP6dElWTaz6Wr6uk2CAUoVD0YG1K0YGpxlxiqnq1ce6gxGrYyuWxI0y1W79CiTR92V5QQ3UXtZ/Xq1euvv75PJaSnuPnmm9dee+1rrrnGZzSN1Ck1S/0+o1tJtaucrCWblqheB8lpp2Ud6zt4JughukH1dH0Tq7cLk0dkuXky3VZjs6oX1T5UwjlQrqqnc2wInpm8GAoxGB38zM3eWVDtvOTtT04Th90VJSR1N7aHSy+99MADD/SphPQOd91119ixYxctWuQzWoTULPVLKz6j7diH/SJFH32M2S+kqGBprr5yI0pmyKrJO3Ad+hBgfTRxf/wAYW1Fn+SsLVo0sj9GF3B1AwH6ROWwKqRUkxdUpPZWx2Wfn6zYhxv7vNp3/qbuNDzwWQdSjffe4vhZzah5cfz2Yc21T6tuhKxjfQfPBD1EN6heVLsSKj5kVc8KnILiTvUAqoJaKaEYIQxTiagznAsEbqlUnSwyqqf+V4m7HTqZI1z7U99FVaqqVvUydkUJ6eDYP/axj33pS1/yqYT0DjvvvPNFF13kU1uK1C+t+NS248QCzqFZzqv6zevO8MqHKBYdm+heAgGVxPZATFS7eFo1dqUtKrY4ZChUPS1u7VN7UjWvIBuK3yob9taOS3oYCqsKnA7BYrsNe8OGU72odlYPQ7PtanDYgWyyjvUdPBP0EF2ievCbSrAMqjEOZNlr9VSeoFbZqqfN2QXTeqqnGoqPaBQdUNXDVByIaqffEOPQ2iyoGfGaaFXPVQJUCstGpaVfxcZ54YUX1l133XrfFkK6nzlz5qhe5Iq0Im351PYS2pWCubcosRb3ZjNrLcqAeTWZpqhpSQ3QMq05Yxu4CuvN6iFXtu37xNB02EkFlWuvlIzfflghGtKPulsaVL2k3Kssrn0zWyNkHes7dSboLbpE9XRlE7NlbnrMeptdeLWqh+KKc6kwoFLnMV02HViNA9ofVb3IiFpkVE/HpWagtSXVv4rzXaCql70rSkjqPmwDc+fOPfLII30qIT3Cww8/LH87y5cv9xk5IK1IW9Kiz2gjuvioXjJgXmhrVc+5nf2IVUjgVK8/WS0FI1U9dTv30aqeBtiGqvFa6mCMFgeut25cUTDTGdUuc7tg14SKWiOqZ5XOrgJT9dpNl6heVLtOqqoH0bHupaq0MnkOqptUqwSeF6Wpns4CRsOpXlRb3MqWVT07E6mql2pjqAeRFh2FzVLVy94VmlgeKi39KjbOlltueeedd/pUQnqEWbNmnXHGGT41N6St448/3qe2HXgG7rRVcVHx0lk9qyA6v2XXNLNn9ZR6eheqniseGp41qj4zqwfclFuU1tthZ/WkEg1ofFbPSuqwqgeVDNMbJOtY36kzQW/RWdUjZNR05KsoR7QDDjjApxLSO2yyySYPPfSQT80NaUta9KmdAJ6ksgX5s6qHDTW5vuRaPat31WBWz3qSUk/vQtUbMs/zw3aG6lmNU7SIjAhaFvbWCm5YidW7/hibGwXX6mEItp5qcruG07vUbYkM91g2Wcf6jpwJeg6qHulR2v9VfPHFF7faaqveemAYIZZrr712r7328qk5s+eee0q7PrUt2EVDuA6ml6rxGqKKl+qUjVcBsolWpJTBYHm3nt6FqheZBeWB+IaJDNWL4hq0rbDPi5MrDoHtbV9yB25ocjYXfXC54W4ENlG1D1UNJnfgarD2nKrXAah6pEdp/1fx6KOPPuGEE3wqIb3Dscce+9WvftWn5oy0KO36VNI6oGKhgxaGrGN9+88EvQhVj/Qobf4qLliwYKeddvKphPQU733ve9s/wSYtSrs+lbQUrE371KKQdaxv85mgR6HqkR6lnV/FpUuXjhkzxi6jENKLbL/99suWLfOpOSMtSrs+lbQOLAGHS8OFIetY384zQe9ST/WmTJny6U9/+rjjjvvIRz4yY8aMww477AMf+IB8mbhXSZfQtq+i/Lu83XbbuQuZCelF5D+W5557zqfmjLQo7fpUQhom61jftjNBT1NP9Xbfffe5c+eee+653/zmNxcsWLBo0aLLLrvsyiuvPOWUU1wwIR2hPX/gDz30kPyN8N0YpBiIcr300ks+NWeoeqRJso717TkT9Dr1VK/eAi4hXUIb/sDlf5sJEybIPzw+g5DeZPvtt3/wwQd9as4UbAG3mvYGCNI4o9iBWcf6NpwJCgBVj/Qoef+Bz5kzZ8011zz//PN9BiE9y3vf+97rr7/ep+ZMF96WgefP+dTGGIWptIfBGJ+aG6NubhQ7MOtYn/eZoBhQ9UiPkt8f+NKlS6dMmfL+97/fPZiekF6HD1sBVL3mGXVzo9iBWcf6/M4ERUJU75Zbbrnvvvvk9PajH/3oBz/4wRVXXHHEEUdQ9UiX0/I/8L/97W/f/e53p02bNm7cuPnz5/tsQnqfa6+9ds899/SpObPXXnu17Qkvg8nTjPXJI3gEMRLx5F6NqcZ3reJRybiJVf67s7larT7lGLmuLRsZgndgVM2LX/EgZSRKzfqA4lT71Mhqco8t4jUAtWkPq/GDlAfjZxrjqcWR6X/47GI86Nj2B+nh6PBA5r4Y1xxy8TF1FKk70D3tubZEDVnH+pafCQrJJptsstlmm+2www577LHHvvvue+CBBx5yyCEHHXQQVY90Oc3/gT/33HPyT85VV1113nnnycFrvfXWO+CAA8T2xPl8KCFFocAvRhsy7yjrT14Fhpc3IBFOg0h1C1gO0qNYSnQD21KPiiOUpV5kCCwT2xqmBhbFU1za56p5/xiwxSFG+j4MjdE3cNhpNhiV1qbd092ioAkN0F0Ujm4gsWGku+asW+vODHNRCbZtD/vMK+lCso71zZ8JykDqAi4h3U+lacaMGTNp0iTRu49//ONnnXXWE0884dsgpHAcf/zxZ5xxhk/NDWlr1qxZPjUf+pO3ikWxwUAv+syLxQaT93c51QvnupAe1hClrT9qZIi0ot4jkoSGVM4ytoEtHiV21aDqpXZJ94BibTJKW9rW0anzAdtcX/x+YY13NaTuQBemv69UsmSuQtVrAKoeIYSUh4cfflhOjsuXL/cZOSCtSFvSos/IB0zgKaGo1VM9KxlQH1tDtdbt9GMYGdJvXllbTSbw6uldqHr9Rl6jpP8Nqp4VqSGzChyqnjVd3Rvh6AZq3/9rm9NI4Jqopu1AWzwKuuHIkjmqXiNQ9QghpFTMmTPHnX1zQlqRtnxqbjgxAiNSvSEzw6fpdspKNSs1MmSgdloO1NO7UPVccdUj++sbVvUGzQyfTQfOsRCQOroM1bO7KKTeDuSsXit55ZVXnnvuuSeffPKxxx6Tvfzggw/ed999d91112233XbLLbdsuummVD1CCCkVO++880UXXeRTW4rUL6341DyxTqPUUz2rd6nb/TFRrDiaOJBcapYaGWKdSemvo3d2G9jVVUgSnKkvuR4OAap6Vu9St/viOyqwDWwNUXL9XOroQtXTqgZiNMuRugOj4Fo9N3ZLlsyVRPV+97vf/fznP7/mmmv++7//+7TTTjvmmGNk973rXe/aaaedttpqqw022ED2w9ixYzfbbLMJEyZss802b3nLW/71X/91l1122WOPPd75znduvvnmVD1CCCkV8t++nBcWLVrkM1qE1Cz1Sys+I2dgEgDqkKp6UbLmOBRjRa0vWQW2gqKJQ/FKaL3I/rRpxUFzKytUqZ7ehaoX1a69auW6ugoPQym9oXVxcgeuVqI1hE6GWT3db9qBcHQDtapnm4vizuOjplhSd6DWUE32TD2yZK54qvfMM88sWbLkwgsvPPnkk9/3vvdtu+2266yzzoYbbrjDDjtMnTr12GOP/a//+i/ZX1dcccVNN910zz33rFy58ve///0rr7ziKyKEEFJubr755rXXXvuaa67xGU0jdUrNUr/PKDrhBF734xZwu5MsmSuA6onzyv9GIsv77bff61//erG6KVOmHHXUUXPnzv3+97//0EMPvfjii74MIYQQ0gDXXXfdmmuu+ZWvfMVnNIHUJnVKzT6j6GAuzad2PVS9DvDCCy/ccMMNs2fPFrcbO3bshAkTDj744DPPPPPaa699+umnfTQhhBDSBA888MA73vGOww477Nlnn/V5I0RqkHqkNqnT55FuharXJlatWnX55Zd/8pOfnDx58tprr7333nufeuqpV1999erVq30oIYQQ0mr6+/s32mijz3/+888//7zPawApJWXHjx9vL3ojpFVkyVw3q95vf/vbSy+99Ljjjtthhx3GjBkzbdq0gYGB22+/3ccRQggh+XPfffcdc8wx66677imnnHLvvff67DpIpMRLKSkrNfhsQlpBlsx1m+qtXLly0aJFH//4xydNmjR27Nj3ve99Z5111p133unjCCGEkE7wyCOPzJo1a7vttttss81mzJixYMGCn/zkJ8uWLVu1atXLL78sP2VbUiRdciVGIiWej3FoEtygetlll+ndqcSSJXOienfcccfvfvc7n9EuVq9efe21137uc5+bNm3aRhtttPnmm7///e8/++yz23//OSGEENI4Ym8XXHDB4Ycfvs8++0yaNGn8+PFySpWfsi0pki65NLyWoA9Gca/BIEqW6k2fPn2XXXbZYIMNxo0bt+uuu37wgx/8f//v/8n/IkuXLn3yySdb/kZzqXD58uXXX3+9yNxhhx02ceLEsWPH7rvvvqeeeuqVV17J12sSQgghxKHPq6Pq1SNL9ZTVq1fffvvtF1988ezZsz/0oQ/tvvvuG2+88T/90z/JPyg77LDDfvvtN2PGjE9/+tNf+tKX5s+fv3DhwquuuurGG2+UIsuWLZP/Wh5++OEHHnjg5z//Od4wceutt37/+9+/8MILv/jFL5500klHHnmk+Nwb3/hGqVD0TmqbNWvWd77znYceesj3gxBCCCEkwT55WFXP3RWLp0DbRzrrtj5LuTrcU4h7moZUrx6//e1vReB++MMffutb35o7d+4JJ5xwzDHHTJ8+/X3ve98+++wjRigiuPXWW7/pTW9661vfuuOOO+6yyy5Tpkx5+9vfftBBB334wx+WHX3WWWdJ2RtuuEF+Qy+//LJvgBBCCCGkPuGsXqrq6YaEIde+Ki2KX4kRvmyjGDSleoQQQgghHaRx1UO6vgltMEbDJNG99KwwUPUIIYQQ0qs0rnoItsu4dhrPvcy3SFD1CCGEENKrhKqnS7TAzerpR87qEUIIIYR0O6HqRfGFd/A5ETjdhuTpnF94rR7CdKMwUPUIIYQQ0qukqh4MT5BcGF5/f79O2vXHRLV34OpiLlWPEEIIIYT0DFQ9QgghhJDCQtUjhBBCCCksVD1CCCGEkMJC1SOEEEIIKSxUPUIIIYSQwkLVI4QQQggpLFQ9QgghhJDCQtUjhBBCCCksVD1SWGbOnFmpVBbGzJs3z2cTQgghJYCqRwrLxIkT8VOEb8mSJT6bEEIIKQFUPUIIIYSQwkLVKxorV66s1IIJrYULF6amA5uLyTDLvHnzTLm/f2ewNqrsv//+iLSJEoNEzKsBjRRkW9PDBVYMRDuj49JqFRmI1lMx49L0sHLb/7BCQgghpDBQ9YpGqHqV2H5C1RMkOAq8zWZFtaIGwiIQOJtSSRTKFU+VQpcF4JfSbfuxEpho2HlVPc1yNYcjCu2WEEIIKQZUvaKhqoeP0BrxJKieM60lMdhWqUIRRKpgWX/CT1SLxCiZQrPOJDGuM0jET5se9iGKu2Fr017ZzoTzdlKD5lbi/qCgmquOCCnaw3DmjxBCCCkAVL2i4ewKUiU/reppjFgRAuy8l/pTlAiWNTBQT/VccD2RCiO1n/iI2rQU6pFOYhQa5kpZUINkwe20KnVfjUSAm/kjhBBCigFVr2hkz+pZYEiYJ0tVsVtuuQUbOiWm6LQcQHF77V24ilpJ3E57aKt1k46oyk3FSQzK6mxfPRONknZ12jKcztTIcD6SEEIIKQxUvaKhImWJgtsy1O1aqHpR7Q0cmmibnmlWdeupns7haa5dhMU2XC1D9dCE3UZxbFP1CCGElASqXtEIVQ/p1qWQDkMK10DtAq6NtIQLuBYVQZuoFqg9tL5lu4FIzQ1HVKmdRwwXcHUIFowitEMu4BJCCCkwVL2i4RZwFat6Os0WpV1jBxmyy7sVMwOH9FD1lsQ3+eq2ltIYO5nnXFDjda7OzrHZmUIFAZqlTS+Mb8twk44AY7fGGZlehTpLSDtxX9oomImvxH8gLgWgBv1rramXEFJ6eFAoGo2oXlS7bpsqRghLnVELi4h4hSchaSIsrg7n0iuJXKIeK5HhPBzi1QttJUjXDcRby0wtwik90lnCv8FohKpn/9b0m08IIVGbVc8cmoqGH2rnaFD1nA/Zk0roPdaNkBuqnrM6rcQmuuvhdBKiYkwOiRqj/dSUKFi3dZ3BWFxbGIIapC1SbxmakLaB76cqGr7b7m/Wgj8B+/+PXodQSbukgRBSZrwQ5Eol8I9iUNRxtR+I3ShOVCjo9I6QXgGq56xuRKqHlHr/6RFCykxbjwhFPQAVdVy9BWxPrykkpIew0+r6r45bwLXO51QPhocAZHENlxCitNVRKgVVoqKOq4fgXbSk17GXQGB+unHVw/cflyJgexRT44SQotJWR6kUVImKOi5CSJvRi1MXxjjDU5zq4aOFFzMQQpS2OkqloEpU1HERQtqDnYTTW84bVL3wPnfANVxCCGiro1QKqkRFHRchpD2EDwASgXMLuEhEvFW98OoF3GDONVxCCGiro1QKqkRFHVf3sHjx4mq1umLFCp+RhkT6pDo0HplBSyohJcetwELpGlS98MGTWlBTCCFlpq3HgqIeepoc19DQUNUgWuMjOoSoVV9fn0/tehp3r8YjM2hJJYQQQkhONOUoI6VJJepamhyXqF5/fz+2RzR9lTdUvUZoSSWEEEJITjTlKCOlSSXqWpocl1U9QewKqqezfepbEiaJ8hHpGibpAwMDSBGQqwGNpEjxwcFBqUcTIZ1AchGDj6n+p2WdtgIbibb0YzWeyJQUF4ywvhgJ0EZTq9W+oR6XaDucGhnukCjuGAjnWRuvhBBCCOksTTnKSGlSibqWJsflZvXgJRAaJA7ERIlOqeEhEkYoPxGsaqIBUCXk1ouBuyBRm1tRO6uHxCjuhnW1KI7UFCmCztQzHudtGLtWrq2jS6hBi0CnkAg3tRtaSrexoR2uFxnuEFg1ch2NV0IIIYR0nKYcZaQ0qURdS5PjstfqWYdQ1VDlco7VF8//WbGQbfUbDVD3yogZMDNt1qtSlUUibQ0OrUrVJ0Tt0w4TDCXiq84XmS4NxmgwNEtrs4kW7XBqZOoOCXVWabwS/UgIIYR0iqYcZaQ0qURdS5PjUrmxU1aYwFNU9awYwTm0eBQ7jS1VTWrDNsqmxjSielZJQ9Wz1aIqDKeaJnxqbNVEyxabZVlVvbBLA8nKqWIrAfox7HBqZOoOieLdW03GEpZyH+tVQgghhHSWphxlpDSpRF1Lk+Nyrqai46a7okD14BO2uJtbclRj60qNSfUqq3raMWy7GuIJuFdXYK0eWX+1ifBUlBqqnZjMUD11RIudQkNzUZ0Op0am7hClr3ZOFCkjrYSMgtmzZ/ukXkO/roPxVac+u6UsTq6FwH84Prth+mKiuM8+jxDSmzTlKCOlSSXqWpocl3W1KHELaz+KhIXuZYunepUiYXI+SI1J9Sr1mKhW7yQ3VD0tXg1mwqwb2UT0J6odQn9MVKdLmPz7RxUJEqnFB5KL51I7nBqZukOUgcC5R1EJGQWiepMmTfKpncZ+r4ZFVa8NqOo1A/4VxF9Z23pOCMmbphxlpDSpRF1Lk+Nyqofj7Ir4RodqAg67/fEFZEhR50stDpCuH/UUFcakelWUrCOjoK3Hne0gOporVdmU1HPGYO08R19yW7GKVL0uYdJCg11xO6Vhw7Ijwx2iYamnzwYrIc0A1Tv88MN9RkcptuoRQgpJU44yUppUoq6lbePqr39bKCEFY3bM4TE+r3Oo6uHfD/3HQ5XO/ZODdCuI9n8V1KMfMcltyc6NzH8dg8E0PzYG6j+GKYo7hhQ7aw60OZvYNnMlhLSQNjkKaJsStZm2jYuqR8oDVE82usr2rOpVk3llbCNAJQlq5VTPTgPjb9kqoJ3nBtm5mObHdl98RURUq3rVzMcwDZqZ9XqdcVcm2AoJIb1CmxwFtE2J2kzbxkXVKzN7l4wJEybonRndY3tuVk/T+4Lb4RHsVC/jTxhS5VMTwlyXogu4VvWsydl1577kMUypM4VR7e1NdibP1UMI6Qna5CigbUrUZoo6LtJVyNfs5vKhw+8S28tWPSdGoerBsTQAxEuj/8BlZeSq27mPVvU0YDDtYUCuQmBjouC2JOeyhJCeoK2OUlQlKuq4SFfBr1k32F626rlJr4Hk1iIt1Z/cdQ7s8mjoXsPm2g6Ehme1LHU2znlnanNOXlPrIUSYN2+eHKPkp88gXUBbTx5FPVflMa7++NbXems9jYP/5nESqrdY07VgJ0TxKHxeA7gJiV4nj69Zz9Fx28tWPRgS/tCw7VTPLqoOJjeq68dQ5jJyo7hR/dPoS7tWT1XPapwyWPvsydTmXEEdHSGWhQsXygFq5cqVPoN0B209eRT1XNXycbVwlUSXjexpqSdYET9uBmea0U0kUPUKSWdtL1v1oviPtxoDD3Oqh20NiJJHM+JLDruyZOfirwOEhucOI4vTHgak9SMltTlbsEh/UCFXXnnloYceuvvuu2+yySaVXmPTTTeVnkv/r7jiCj+w/BHV80mkm2jryaNS0HNVy8dlTwxk1FD1CklnVa94pEpk2Tj99NPHjx//7ne/+8ILL7z99tufeuopH9H1PPnkk7fddpv0X0YhY5ER+YiRs//++8thBxqH7YkTJ2ouVmxnzpzpIoGkq4ailPyU7SVLlmiMBrh0BUUUtzpsmxCkDytXrsS25Op2pXa6EV2tBC1iOBbnrxJvc20WsC0CKWL3EsAMqHRDU3TPYEOzEFlJ2hq2AxmMLLpJRtq5XqG149J/rKvJpdO6ejKQXPrTH9/H15c8UkvLugmDyDx2y85A2ImHeikh9p97/Yi+2W1tUTXLFlxR5327YZibsUCMTUy1Ya2kL35DhhbEWnA17cFgOh8TGclGJzEWTHiguFsRA+0RytZ+zXoUel4eyLe9tMuyN9544+TJk6dPn758+XKf17PIWGREMi4Znc8bCaHqVYxvZaheYiP/IFQ9Zy0gvM6vVaqnHbOJw6pexShaaq6roXnV0xrgpnaPNdKBDNp68qgU9FzV8nHZWb1qHdXT9P7k2VpQE0RCPjQLZaEpkCFNFGAtSKmHlc7B5BIf7Wd/crG5tqjxzgjrqV4YNhiv3moW4qvmUiEskGEb2E6iFPYDhokYWwOop3paFYRPg1FnavdypeVfs56Dntdy8CeT8Q9esbn44ovHjBkjP31GIfjud7/b5OhSVU8PRPVUTw1M59IQY8XFTV+px7ir/cKJQAsasv4Xql7qPFlqtc7JdBTWwLStcI4zqm1dGZHqRUm78tOGNdiBDNp68nC7oDC0fFyNqJ7OJOkVOVZZouAGvSiuKqpd1kSMNaR6DMboR6s+KpGuRTRkxU7TQ9ULwyzoHmrTxMXBm6DsfovMSK2KuYFE9VVPw+ptK8PuvZZQ4cNW6HmkdSxYsGDDDTe87bbbfEaBkNHJGGWkPqMxQtVTEYnqqx6kJPQzFRqd0rNih1y3ZprqZEojqicdQyUIwEf0Nlv1oqT1eTGVWq9y028uUVOitGqzVU8rsZ1ssAMZtNhRsnG7oDC0fFxWWRpXPTe3FJoQqsKMoGIn1WxbjgGzrAyQ7mbjXAz65mbRUlUvDIvMWnA1bsJZmpZV1O3sR4ispVWq57qHxPzwjxguOt35CGVSDJYuXbr++uvfcccdPqNwyBhlpDJen9EAoerJtipIquqpxvm6jNDo1JrNDb0tChZwnZzpxBuQsqHqSQ3op2qolGpQ9dRrreAqoYZq60qUVm226kVmXFqqwQ5kkPL7yA+MvHi0fFxW9TDrhu1s1bORUTDHFqXN6jky1iKdZil98SMe0NuwxSitOVuVndVzYVWz0gqXamRWz3ZS91K9QQFrmbrn6+mdbofdwzZpFd35YrQWkv21zAD/vfhUMhJ23nnniy66yKcWFBmpjNenNkCq6kHm5GOvqB66NDNZEpWPvaJ6GtNgBzJI+X3kB0ZePFo+LhWOKLj6DdupqjdY+5QsWzaKHQV1DqW9TFOpdwpJtUDtp06M9SWXsim2IObYbAekh3Za0YapPw3Ft4xg2wpWvbbsFCMC7H4I0T0TxfU3rnph90gLgeoV1fOi+n9rDnyTlcHaB+CRUXDyySfPmDHDpxYaGa+M2qcOR6rqRYl5IMWpnupOqCCqJqk6iFzU7xLDqkBoh6mqFyX1ID5Kejus6mmXkGXlLHX9tMEFXAw/VD1Upd22Y2+wAxm02FGycbugMLR8XFb1cFivJreUZqheFIsIgjVFFxntBNigeUuSbNtzCaodjNF4AKcBA/EkXNXIWdXYmBIWREq/uR9Wtc+FaScxKFSue6MarMMCLYW5Rt1L2YutmqV7PlXv7HZq90gLEc+bNGlSUT0vGonquf/NqHrN8Mc//vG1r33t448/7jMKjYxXRi1j9xmZ1FO9KLkgrxKoXmSm4rQexFh3wba6C1TGFgGtUj2dJ7O9zVY9LbIyBtvaFmqw7hU1rHoahg448UXNUspO/jXYgQz8ns0VHUzB6KpxwTx86ggRT+qIu8D2dN6OlBlM6fnUHkf/GcO/Cki0/8Do/3hKhuq5LEyuDyS3SUVxc9i2/86l/o9UHubMmXPMMcf41BIgo5ax+9RMMlRP5SxUPXUXxU6tOb+xuCk9LaK4FczGVU+bs2NJVT1HOF6Lm1HLUD1LFCw9V5JRQO8qSQ3YRh/CeipBBzJoq6NUukmJWki3jWug6adk2SnANiO2V/JTEQF6T0ZhGDSXWNh/yaqZjxAaqerpxork2lnE6z9v1XY9CbI72Xzzze+++26fWgJk1DJ2n5pJhupFZlU0NdcaSTirF8akWkurVC9K2sJ2g6rnumT1VKu1NK56UdIHgCGEU3daFj0ZtgMZtNVRKl2mRK2ie8aFY7o7MfQQWGbtyIQiIXmjKgaga0PD3WzkrtWDw2WrHtL1Mo+/X41h9NG1WCqWLVu2zTbb+NTSIGOXPeBTSQloq6N0jxK1lqKOixDSQuBn7qPzsHAOL0wZVvUis3SLbTuNZ6/uLRtf/epXjz32WJ9aGmTssgd8KikBbXWUoipRUcdFCGkhfeZxSKprjczq1VM9XaIFblZPP3JWTzn44IMvueQSn1oaZOyyB3wqKQFtdZSiKlEhx4Vlo8H4yQ7dc2XPYHLHbl+81ItOdk/3CMnAzbTpJB++ydjuS3uEUD3Vi0xZe0sTJE8LhtfqaXNlY9dddy3DY5PrIWOXPeBTSQloq6MUUomigo4L//fjhNQlF88tju8ujGofRkNID4F/UfD/ieoaVAy4ezKi4VQP9VTjW3dheHjMEHL7Y6LaC/7K/K/RhAkTHn30UZ9aGmTssgd8KikBbXWUQipRVNxxdRs6FTFgHnRHCCENsu6667744os+tTTI2GUP+FRSAtrqKEVVop4bl04t2Lmx/uSxxnY+r1p7P68mVutM9WklqmIuBXcFage0Ep2cSG0OMxOI1wqr8cQGEhGv1aKt1CEQQkoLVY+qV07a6ig9p0QN0lvjWrx4sa7gVJOrduyiD3LtGhDMadA8FcwuPykDMdhGzeFKK0QNcgbni5LVJQRoJQPmwiZ0SQsOmFk9TewzDySrNwRCSJnhAi4XcMtJWx2lt5SocXp3XJhjs5f+hKiu9Zn7B6O4rLu421YymKC6Bpx1oc4B8zCIFclNhepwSobqhdczWULjJISUEN6WwdsyyklbHaV3lSibnhvXgFmHFcfCpdwuRldUq8mSbrVWB6GJ+tFeWg5gY2hL63el9EJyWxD+F6pbtb7qDaU9PyIcAiGkzPBhK3zYSjlpq6P0nBI1SG+Ny86r6aye8yo7Gze6WT3H3xdl40qc6kHU7KyezQpT6qleaKupQyCElBk+QpmPUC4nbXWU3lKixumtcalsYR4O29b/sPCqbiSGh20rT3qZncUtzlp01k1itKBWmFqb2mEUR0aZqhfVPpCs3hAIIWWGL0bji9HKSVsdpbeUqHF6a1z6hK0+85bMKLh9FdvVeOlTPWnArPxqhRatpJpM17l46CBSrN5pYjXt7l10oJqpetgGGJR+tEMghJSZzTff/O677/apJUBGLWP3qaQctNVRekuJGqcw44L8+dSW4hZwCSGkncyZM+eYY47xqSVARi1j96mkHLTVUQqjRI4ijStcSG0tVD1CSAf54x//+NrXvvbxxx/3GYVGxiujlrH7DFIO2uooRVIiSzHGhftV817opOoRQjrLySefPGPGDJ9aaGS8MmqfSkpDWx2lUlz8UAkhhHQrO++880UXXeRTC4qMVMbrU0mZoKMQQggpF0uXLl1//fXL8DhlGaOMVMbrM0iZoOoRQggpHQsWLNhwww1vu+02n1EgZHQyRhmpzyAlg6pHCCGkjFx88cVjxoyRnz6jEBR7dGREUPUIIYSUlBtvvHHy5MnTp09fvny5z+tZZCwyIhmXjM7nkVJC1SOEEFJqTj/99PHjx7/73e++8MILb7vttieffNJHdD3SZ+m59F9GIWOREfkIUmKoeoQQQkh05ZVXHnroobvvvvumm27qH7LQ9WyyySbSc+m/jMIPjJQeqh4hhBBCSGGh6hFCCCGEFBaqHiGEEEJIYaHqEUIIIYQUlv8PQD4fLG8AH2kAAAAASUVORK5CYII=;" parent="1" vertex="1">
          <mxGeometry x="-1530" y="-910" width="846" height="295" as="geometry" />
        </mxCell>
        <mxCell id="xbliHczLCTZFfjDGBErI-33" style="edgeStyle=orthogonalEdgeStyle;rounded=0;orthogonalLoop=1;jettySize=auto;html=1;entryX=0;entryY=0.5;entryDx=0;entryDy=0;" parent="1" source="xbliHczLCTZFfjDGBErI-11" target="xbliHczLCTZFfjDGBErI-14" edge="1">
          <mxGeometry relative="1" as="geometry" />
        </mxCell>
        <mxCell id="xbliHczLCTZFfjDGBErI-11" value="Buscar os dados necessários" style="rounded=0;whiteSpace=wrap;html=1;fillColor=#f5f5f5;fontColor=#333333;strokeColor=#666666;" parent="1" vertex="1">
          <mxGeometry x="-9.5" y="2072.5" width="120" height="60" as="geometry" />
        </mxCell>
        <mxCell id="xbliHczLCTZFfjDGBErI-35" style="edgeStyle=orthogonalEdgeStyle;rounded=0;orthogonalLoop=1;jettySize=auto;html=1;entryX=0;entryY=0.5;entryDx=0;entryDy=0;" parent="1" source="xbliHczLCTZFfjDGBErI-12" target="xbliHczLCTZFfjDGBErI-11" edge="1">
          <mxGeometry relative="1" as="geometry">
            <Array as="points">
              <mxPoint x="-259.5" y="2102" />
            </Array>
          </mxGeometry>
        </mxCell>
        <mxCell id="xbliHczLCTZFfjDGBErI-41" style="edgeStyle=orthogonalEdgeStyle;rounded=0;orthogonalLoop=1;jettySize=auto;html=1;entryX=0;entryY=0.5;entryDx=0;entryDy=0;" parent="1" source="xbliHczLCTZFfjDGBErI-12" target="xbliHczLCTZFfjDGBErI-40" edge="1">
          <mxGeometry relative="1" as="geometry" />
        </mxCell>
        <mxCell id="xbliHczLCTZFfjDGBErI-12" value="Encontrado&lt;div&gt;partição com os&lt;/div&gt;&lt;div&gt;dados&amp;nbsp;&lt;span style=&quot;background-color: transparent; color: light-dark(rgb(0, 0, 0), rgb(255, 255, 255));&quot;&gt;do mês&lt;/span&gt;&lt;/div&gt;&lt;div&gt;anterior?&lt;/div&gt;" style="rhombus;whiteSpace=wrap;html=1;fontSize=12;fillColor=#f5f5f5;fontColor=#333333;strokeColor=#666666;" parent="1" vertex="1">
          <mxGeometry x="-319.5" y="2185" width="120" height="110" as="geometry" />
        </mxCell>
        <mxCell id="xbliHczLCTZFfjDGBErI-13" value="Sim" style="text;html=1;align=center;verticalAlign=middle;whiteSpace=wrap;rounded=0;" parent="1" vertex="1">
          <mxGeometry x="-249.5" y="2165" width="40" height="20" as="geometry" />
        </mxCell>
        <mxCell id="xbliHczLCTZFfjDGBErI-32" style="edgeStyle=orthogonalEdgeStyle;rounded=0;orthogonalLoop=1;jettySize=auto;html=1;" parent="1" source="xbliHczLCTZFfjDGBErI-14" target="xbliHczLCTZFfjDGBErI-18" edge="1">
          <mxGeometry relative="1" as="geometry" />
        </mxCell>
        <mxCell id="xbliHczLCTZFfjDGBErI-14" value="Realizar transformações" style="rounded=0;whiteSpace=wrap;html=1;fillColor=#f5f5f5;fontColor=#333333;strokeColor=#666666;" parent="1" vertex="1">
          <mxGeometry x="150.5" y="2072.5" width="110" height="60" as="geometry" />
        </mxCell>
        <mxCell id="xbliHczLCTZFfjDGBErI-37" style="edgeStyle=orthogonalEdgeStyle;rounded=0;orthogonalLoop=1;jettySize=auto;html=1;entryX=0;entryY=0.5;entryDx=0;entryDy=0;" parent="1" target="xbliHczLCTZFfjDGBErI-7" edge="1">
          <mxGeometry relative="1" as="geometry">
            <mxPoint x="-639.5" y="2240" as="sourcePoint" />
          </mxGeometry>
        </mxCell>
        <mxCell id="xbliHczLCTZFfjDGBErI-31" style="edgeStyle=orthogonalEdgeStyle;rounded=0;orthogonalLoop=1;jettySize=auto;html=1;entryX=0;entryY=0.5;entryDx=0;entryDy=0;" parent="1" source="xbliHczLCTZFfjDGBErI-18" target="xbliHczLCTZFfjDGBErI-19" edge="1">
          <mxGeometry relative="1" as="geometry" />
        </mxCell>
        <mxCell id="xbliHczLCTZFfjDGBErI-18" value="Verificar se já existe a partição da &lt;u&gt;referencia&lt;/u&gt; informada nos &lt;font style=&quot;color: rgb(255, 128, 0);&quot;&gt;parâmetros&lt;/font&gt;" style="rounded=0;whiteSpace=wrap;html=1;fillColor=#f5f5f5;fontColor=#333333;strokeColor=#666666;" parent="1" vertex="1">
          <mxGeometry x="300.5" y="2072.5" width="140" height="60" as="geometry" />
        </mxCell>
        <mxCell id="xbliHczLCTZFfjDGBErI-29" style="edgeStyle=orthogonalEdgeStyle;rounded=0;orthogonalLoop=1;jettySize=auto;html=1;entryX=0;entryY=0.5;entryDx=0;entryDy=0;" parent="1" source="xbliHczLCTZFfjDGBErI-19" target="xbliHczLCTZFfjDGBErI-22" edge="1">
          <mxGeometry relative="1" as="geometry">
            <Array as="points">
              <mxPoint x="535.5" y="1980" />
            </Array>
          </mxGeometry>
        </mxCell>
        <mxCell id="xbliHczLCTZFfjDGBErI-19" value="Existe a&lt;div&gt;partição&amp;nbsp;&lt;span style=&quot;background-color: transparent; color: light-dark(rgb(0, 0, 0), rgb(255, 255, 255));&quot;&gt;?&lt;/span&gt;&lt;/div&gt;" style="rhombus;whiteSpace=wrap;html=1;fontSize=12;fillColor=#f5f5f5;fontColor=#333333;strokeColor=#666666;" parent="1" vertex="1">
          <mxGeometry x="480.5" y="2050" width="110" height="105" as="geometry" />
        </mxCell>
        <mxCell id="xbliHczLCTZFfjDGBErI-20" value="Nao" style="text;html=1;align=center;verticalAlign=middle;whiteSpace=wrap;rounded=0;" parent="1" vertex="1">
          <mxGeometry x="535.5" y="2155" width="40" height="20" as="geometry" />
        </mxCell>
        <mxCell id="xbliHczLCTZFfjDGBErI-30" style="edgeStyle=orthogonalEdgeStyle;rounded=0;orthogonalLoop=1;jettySize=auto;html=1;" parent="1" source="xbliHczLCTZFfjDGBErI-22" target="xbliHczLCTZFfjDGBErI-27" edge="1">
          <mxGeometry relative="1" as="geometry" />
        </mxCell>
        <mxCell id="xbliHczLCTZFfjDGBErI-22" value="Atualizar a coluna &lt;u&gt;indicador de estorno&lt;/u&gt; para valor = S na partição existente da &lt;u&gt;data de&amp;nbsp;referencia&lt;/u&gt; informada nos&amp;nbsp;&lt;font style=&quot;color: rgb(255, 128, 0);&quot;&gt;parâmetros&lt;/font&gt;" style="rounded=0;whiteSpace=wrap;html=1;fillColor=#f5f5f5;fontColor=#333333;strokeColor=#666666;" parent="1" vertex="1">
          <mxGeometry x="600.5" y="1940" width="160" height="80" as="geometry" />
        </mxCell>
        <mxCell id="xbliHczLCTZFfjDGBErI-23" value="Sim" style="text;html=1;align=center;verticalAlign=middle;whiteSpace=wrap;rounded=0;" parent="1" vertex="1">
          <mxGeometry x="535.5" y="2030" width="40" height="20" as="geometry" />
        </mxCell>
        <mxCell id="xbliHczLCTZFfjDGBErI-25" value="" style="shape=image;verticalLabelPosition=bottom;labelBackgroundColor=default;verticalAlign=top;aspect=fixed;imageAspect=0;image=data:image/png,iVBORw0KGgoAAAANSUhEUgAAAyAAAADaCAYAAABekSaKAAAACXBIWXMAAAsTAAALEwEAmpwYAAAgAElEQVR4nO3dTXNUV57n8d/NVKaEQCAKh6myu4K0u6KyZqLLFgsvejZOsnvh6Q0wi151hMUrMKw6IjfAJmcJfgWSXwFiM8VEdKeTma5m4e5AtqeryaoypAwGzINJWZZAz7O4J0Ui9JDKPPee+/D9RCh41LlHqdS953/O+f+PBAAAAAAAAAAAAAAAAAAAAAAAAAAAAAAAAAAAAAAAAAAAAAAAAAAAAAAAAAAAAAAAAAAAAAAAAAAAAAAAAAAAAAAAAAAAAAAAAAAAAAAAAAAAAAAAAAAAAAAAAAAAAAAAAAAAAAAAAAAAAAAIkOe6AwAAAEDbtZm5gqSCpFFJY+av3zd/buv8t07Tklodf25J+nLTv01/dGyktfkTER4CEAAAAITu2sxcO4go6WWAUQqxC3VJTUkz5vcEJiEhAAEAAEDgzMpGSdKH5teCu95sa9p8XJdU/+jYSNNtd5KJAAQAAACBuDYzd0p+wHFK0Qw4dtOUNCXp+kfHRqYc9yUxCEAAAABgzbWZuXFJJ+Wvcozu+J/jpSU/GLlKMNIfAhAAAAD05drMXEnSx/JXOpIUdGynHYx8+tGxkWnXnYkbAhAAAADsmUkiH5f0ieK5vcqWpqSLkqZIYu8OAQgAAAC6ZpLJz8sPPvBSS9Kk/FWRptuuRBsBCAAAAHZltlmdV7ilcuNqUtJFApGtEYAAAABgWwQefZkUgchrCEAAAADwGrPV6pL8xHL0Z1IEIhsIQAAAALDBJJefl3TWdV8S6KKky2lPVicAAQAAgCTp2szcWfnBRxpK6brSlHQuzWeJEIAAAACk3LWZuTH5261KjruSJnVJZ9K4LSvjugMAAABw59rM3AVJN0XwEbaSpJtm1SlVWAEBAABIIbPqMSFpzHVfkK7VEFZAAAAAUsbMun8ugo+oKMlfDUlFxTFWQAAAAFLCVLiaEKV1o2zyo2MjZ1x3IkgEIAAAACnAlqtYmZZ0OqlbsghAAAAAEs5s7ZkQ5XXjpCU/CKm77oht5IAAAAAkmKlydUUEH3EzKunzazNz4647YhsrIAAAAAl1bWZuQtK4636gb5c/OjZyznUnbCEAAQAASBiTbH5FnO2RJIlJTicAAQAASBATfFBiN5mm5J8X0nLdkX4QgAAAACQEwUcqTEs6EecghAAEAAAgAQg+UiXWQQgBCAAAQMwRfKRSbIOQAdcdAAAAQO+iFnwcyGU0kEn3HHdrcTWMy4zJLzRwIoyL2ZTudwcAAEDMXZuZuynHwcdAxtORoayOjeQ1lGV4+dPymm7/uBRWIBK76li8QwAAAGLK9TkfQ1lPx0byOjKUTf2qx1a+m1/WzNyyVtbWg75UrIIQ3ikAAAAxdG1m7pKksy6ufXR4QD8fHtChfNbF5WNlZW1djdainr4IfDXkzEfHRiaDvogNBCAAAAAxc21mblzSRJjXHMp6Ojqc09HhAbZZ9WB2aVWNZ4t6sRroasiJj46N1IO8gA28ewAAAGLk2szcmPyk89Ewrjc6mNXRfQM6Okzton6trK3ru/kVzcwtBXWJlvwgZDqoC9hAAAIAABATpuLVTUmFIK9DUnmwflpe0x9bi/ppeS2I5iNfnpdQFgAAID6uKODgY3Qwq18dGtxIKl8KZIycHCtr65rr4UV6e39e380vBRGEjEm6JCmySemEtAAAADFwbWbugqTzQV/nr44MK8+qR9derKzp/txyT5+7ti79uLJiuUcbIpuUzrsLAAAg4kzex82gr/PmcE5/cSAf9GUSpZ8ARJJ+WlnVynogiektScc/OjbSDKLxfmRcdwAAAADbM3kfV4K+Ttbz9Iv9uaAvg03ymcCG46G8b3pBAAIAABBt5xVw3ofkr35kPTbHhC2f8ZQJ7nUfM1v3IoV3GQAAQERdm5kryS+5G6is5+mv3thHANKDfrdgSdKLtTW9WA002/94lErzsgICAAAQXaEcNsjqh1t5L/Ah+aWgL7AXvNMAAAAi6K//5+8v/GwkH3jVq8FcVv/jb36trKNp6aGMpzcHex+S/ri8rj4XIPrSmn2hr//fw77b+X5hUfMrqxZ6tLXZ+eVz//KP/+1yYBfYAwIQR4qVWkH+fs72hyQdkl+7uVNT0kzHn+uSWo1qOTLLaAAA7KTjmTeml6d37/bMa8k/UC2Vzzzzmt0J41ofvPeWPvjtL8K41CuGs56O5D0NZ/trpzG7olutwErZ7mrxxxd68p/3+25nYWVVd+deWOjRtlqS3mlUy84PKOQgwpAUK7WSpJKkD/XqDXivzpv2JP/GPC3pS0n1NN6gAQDRUqzURvXq865koU0pfc+8ULbMDOazeq/4ZhiX2nAo5wceOabBXzE8kFUu42l5LZCSvJI/9ozEAYWBfuuLldolvT67sSeNavmEpe6ErlipjUs6Kf/m22vAsRdNSVOSPovDjblYqbVP6kybzxrV8mQQDdv4mQtYUy9nN5vmYzoKszF7YX62P3bdDweCfO8GnmTbo6Zef882G9Vy0013osnM1p+S/3MR1j2oKf+Zd7VRLddDumYozKRlKD8TYa1+ZDzpZzlPh3OeMpZHn0lZAZGkZ4vLerSwZKWtHbzj+h4W9AqIlZmPODE34U8kjSucoKNTQdJZSWeLlVpT0sWgBguWtGfJ0uZ6gG3H8meuWKm15G8v/FLSVAwC6IJi+DpbEOR7txRg29aZGfm6/NdkWv6MfKwCaRuKldop+c+8koPLF/TqM+8zSZcT8n0IZXJuZH8+8NWPXEY6kvd0aIDljm4cyg+EEYBMSHI6wc8WLEtM4HFefuARBQVJE8VK7byiH4gAo/JnT09JOm8GE7FZzUNqldQx8C5WalOSrsoPopMwCN6WWQUM5WyKLhXk9+d8sVKblP/ca7rsUK/MaxvKKtIH772lwXyfCRjbGM56OpyTDhB47EnG83QoP6DZpUBXdErFSq3kcuWQMrx9KlZqo2bbyx1FJ/joVJAfiNwxS7pAHBTkz2zeLFZqN80DGYi6U/JnFu8UK7UJMzGVKMVK7VSxUrsj/+ssOO7Odsblfw8umHyUuAm86pXkr3785t0j1ts9lPNUGM7ol/s8go8eHRwMZX0glPfZdghA+mCWnu/IHyhFXUHS58VK7UpMb8hIrzERRCNeRvVyEJyIQKRYqRVMns4VRTfw2Oy8/O/BKdcd6ZaZbCmEca0P3nvLWlsZTzqc8/Tu/ox+PuhpkNFlX4YHshoMviZyyeUzlbdID8yqxxX5N+K4DeZPyZ9VjnKiMrCVggiiET/jMrPxjvvRs2KldlbSTcUsT8cYlXQlRveNWK1+5DLSm4Oe/nI4ozcHqWpl0+GhXBiXcbYKQgCyR2bgflP+QD6uCvKDkHHH/QB6QRCNODpvthPG5n3bMdl2SfGbbNss8vcNs1JTCONa/a5+DGc9/XzI07vDmUCqWkEayWWVCf5kemerIAQge2AG7J8rPsvPu5kw+StA3BREEI34GZO/ijfuuiO7Schk22YF+a9/VL+mT8K4SD+rHwcGPP1yn5/fQVWrYGU8TyO5YAoEbOKkpDwBSJfMA2NC8Z8F2uxssVKbcN0JoEcTcRjMAR1GFfH3bccZFAW3PQlEe0vWuOuOdDIBXymMa+119SPj+Ynl7+7P6O2h/k8tR/dC2oY17iJPjQCkCx3BR1KNsxKCGJsgOR0xFMkgpGOlP2mTbZtF7fWP3OpHLiO9kffzO35OfocTg9mMhgdCifjGw7hIJwKQXaQg+Gg7G7GbMbAXcUkwBTpFahCcouddWyRef3PvCqUff/PXhV3/Ty6jjfyOI/l45Hfsy8agkz0KqSRvKAFwJwKQHaT0ZhzZBD1gB6Pyq9IBcROJ+65ZRUzT867tUgRe/1ByUt4+OqK3jo5s++/DWT+/493hTOzyO4Zj1t+9OJQfCCMZfTTs3CgCkG2YG1Iab8bMJCOunNY0B/rg9L5rnndpDeDbOSEun3uhzD5/8NtfbPn37fyOX+4jvyOqDuVDWQUJNRk9lK8obsyN6POQL1s3v17f9Pfvy79BjimcPbkF+XWhz4VwLcC2S5KOu+4EsEcFObrvmudd2GdatSRNm1+/3PRvx+S/Hu3nXhgK8iccT4d0vQ0m+Tfwr3Pz6kfGk36W83QwR25HHBweyunZ4nLQlzlVrNRGG9VyK+gLSQQg2wnjZjwl6aqkeqNabnbzCeZBUZJ0Uv6SbVB9PFus1K42quV6QO0j2uoBtRtGED1WrNRKvHcRQ2eLldpnjWp5OuTrhnGyeVP+M++6/Gde1wOcjupQHyrYrUqnipXaqUa1PBXgNbYS6upHLiMdyXsaycYjtwO+XMbT8EBWCyurQV/qlKTJoC8iEYC8xpz4Wgqo+ZakTyVd7iXCNJ8zZT7OmByV8wrm4TEh6Z0A2rVtWvFbrWm67sBOGtXyiSDbN9ukxuQv9wYx8/exgguibJqU9JnrTuxR03UHdtKolq0NqczAd1T+/bUgfzW6pGCD6EuSAv356xTw807yn1Wf9jMhYAKyaUmXzSTcKQX43CtWansKkCwIfN/920dH9Ku3Dupwzj/HA/GysPhCT376Sc8z+8K43CciAAmfWQoN6lj6i+ox8NhOo1qelDRpAhHbJ9UWipXauLlGlLWY7Y4X8/2qyx9QFOT/zI1bvMQpSWcstheUGd670bXdSoQJTD6W/561HYyUipXaWBirIOZnL6jy63VJZ7pd3e+WeX5O6uVzz3YgMirprKQLFtvclnkvFcK41vL6upbXPa2ti5WPmJidn9PjH59peU3K7PtZWJcdC2sbFknorwrioMFpSccb1fKFoL6hJkh4R/ZnfYMKxgBJUqNabjaq5TPyZ31t/XyMRqCqDRKqUS1PN6rlc41q+bD81Vfb9/WwymEGUWSlJel0o1o+YTv42Mw8945Lumy56fMhHspWCuMi330/p5kHc3q0uK5vFtb0cHFdy+thXBl7tbq2ptn5Of35wbe6/8NjLa+u+sFH8FWwOoVSDYsAxDDbQkqWm52UdCKM2axGtdwyW2cmLTZbiEKNdCSfWQmwGYSULLUDbKtRLV+WP/lj8x4f+MPf3NdLlputS3onzBwK89w7Jz953GYgGNbkW2hVh774+oEkaW1dml1e1+35Nd19vq6FwFMK0I3VtTU9+fGZvmkHHisrkue5CD4kP884cAQgL9leip5sVMtnQt5LKjObPGmxSVZBEAoTqNuqQkMpaYTCDIKPy94K9GiQ5aRNHoXt+/qkWfUI9XnXZoIemxMYp4Iuy2vaD22l9rvv5zQ3v/TK3y2sruvu8zXdXljT7Mq61lgVCd3yyspG4PF49plW19Y2/i0zNCplnGRKlMK4CAGINmaDbN4IJk0g4IS5tq1ZqELYh9MgvTryQ/r1oYU2gL04LXtJ+kHOQJ6V3bwDp8+7NjOBYSuBP4yTyUsBt/+aL766v+XfL69JD1/427MesT0rFMsrK7r/w2P9eYvAQ5K8oYNSNu+od8FOgrQRgPhs7rmdisLNWH4SbtNSW6EeToPUi1tlKKCdIG3r3h/IzLiZdbf5vItE8NFmghBbVRGDzsUJZZtLp1u3n762CtJpbV16ZrZnPVxke1YQFhZfbAQes/NzW/4fL39A3kAoFa92Ugr6AqkPQDpKgtrQVESq75iHoa0bceDL0UCHsOvwA1aYFTwb+SAlC21sZVz2tidGsgS6ycupW2iqEHAxCyeFMrZbBdlsdtnfntU027PQn4XFF5p59EAzj+5vG3hIkpfbJy+/P8SebSvwXQSpD0Bkd5Yj9JyPnZh9sXVLzbENC6GI0s8Q0AMrK3gBVWKy9bxrV7uK6s+qrYnAQFb/w87/6HTnXkuLS90vbSya7Vl/ml/T0yXyRPZqdn5Odx7e08yj+1pYfL7j//WyeXmDB0Pq2a5KQV8g1eeAdBxqZMPliNb0vyg7b6STCulwGkD+7CqldBFHU7JT1KQgiwc/mly+gqXmLgZdZrcfjWq5WazUzqj/r7fZf2+25Ozetri0qq8ajzZORu/W2rr0ZGldT5bWdSjn6XDO0yBT2NvaOMNjZaW7T8gMyBuK1kaToM8kSnUAIntJZi35A/3IaVTL9WKlZmMwV7LQHaBbBdcdAHphBr+uu7EVWzkH02abU6RF/BDdksuLf3Xre71XfFOD+WxPnz+7vK7Z5XUNZz0dzEmHOF1dkl9K99lPs/phbva1pPIduSu3u5sx2S0x/oq0x6+2llc/jfBStGRnS0AoVREAo9+poKaNTgA9svHQLlhoQ9LGav+4peYil/cRQ++7vPji0qoat5/23c7C6roevljX7YV0b89aWV7R3Zl7W5bS3VV0gw8p4PdpagMQi3swW7J/EqtttpJ6S5baAbZlKdCdsdAG0CsbE1IFC220lSy1U4/oVuO4cb699Mtb31tra3nN357l8pT1N4bCH86+WHihP/zbH1S/Wlez0dxb4GE4POujG4G+TyP7VYfAVu7HZMRXP9pbAmxsEQv8RHdAdlYm6xbaAJLC1vYrSmTbUXDdgbn5Jd26/VS/efeItTbbp6y3t2cdzkkHErg9a641p7t/vqv7ze4qim3H8Vkf3SgF2XiaAxBbJcZicUNuVMsXXPcB2I2p/NPv5ECLWVokgM2JLRsTbq2I51XEQpS2Mn/x1X2rAUinhVX/HJFcZl1H8p5Gsp4yMY9Fnj1+ptt/uK1nj5/13VZEzvrYVbFSGw1qkj3NAUjJQhvTQVYIAFLoivrP/+AcEbhWstCGlWeLOcvCRnmdSQttwN45LH2bm1/S/e/n9NbRkcCu0T5l/ZG3rkMDng7nPeViFog8mHmg+837VgIPKVJnfXRjTAHtKEhlAGLyPwoWmqpbaANIPfMzeUV29pzGYlUSyRTQ+R39sLWPm58rO5znf3T64usHOhlgANLWPmX92fK6Dgz4ZXyHeyvCFZoHMw90+w+39Xx+5/M79iJiZ310oxBUw6kMQGTvBnDVUjtAahUrtXFJ52VpUoDtV3CsZKmdpqV2bFSyabHab80h1x3o9N33c4Gvgmz208q6flpZ12BGOpz3IlXGd2V5Rfeb93X3z3etBh6SInnWRxcKQTWc1gCkZKMRBjpAbzpyPT6R3RscJULhmpXy7hYP+rMx4Va30AZ8kVoBkaQvbz0KNQBpW+zYnvWznKeDOXfbs1aWV/Ttn77Vt3/6VivLXR4euBfRLre7k2NBNZzWAMTGC1q30Ab6F6vzSeIQtAb0erb3ob9vfl8I4BoXYzZLe4z3brKY72fJQlN1C220lSy08aWFNhBRd+61NDe/pJH9bioyuTxl/cXCC93+w209+u5RMIGHFOfgQ2IFxLqChTbiNNBJsjFJn7vuxB7E4Q4Up9ezbTKGld7GZe9wuDDE4b3r2iVL7dhKQLe136NuqR1EcAVE8itilf+64LoboZ2y3g48+i2l242In/XhTFpfkYKFNjjoDIiGyUa1fMZ1J5BuxUptQvYGl9cttWOrP0y42RPJJIBbt5/qg/fecrYKslm7jO/TjKmelbNTxtdmKd1uxOCsj90UgmqYAKR33JAB9wg+4JwJPsYtNddqVMuRKiUd9GG7ZqUmkisDxnTUDxy2ISqrIJ3ap6y3t2cd6bGM7+P7j/Xtn74NLfCQ4nPWxy4KQTWc1gAEQLy1JJ3jYDS4ZAbOE7Jz0F+bzeDDxqA+jMm2qG+lPaEUbEO7dfup3vnlqN75i0gu0vR0ynoQpXQlaXjwZWCxf2hoy7+/u7Bq9ZpJk7oAxNaeWBIyAWcm5SecNx33AyllniNn5Vdxsz1as3neho2+JX7mPyzmUMhIq91o6h9O/laD+ege0tF5yvrhnF/Gt3N71sryih7ff9x14JHNZDSYG9z4/VDe3zKV8TIayg9u/L/hwaEtP3/7js7v7f+nTOoCEEV7mRfA9iYlfUbwDxdM6eiSpJOyu+LRiXNski2aSwsdFpdWVbvR1H//8C9dd2VXy2vSo0WzPWvAk1ZWdPuP3+rBnQfy1vyqGYf2jyg/4A91c9kB5QZykqRMJqOhXKxzM2IvjQEIgPiZlnSdwRl2UqzULlhu8n35g8Z2GemgXQzhGsCO7txr6atbj/Teb9503ZWuZT1p9bsfNDgnFd74hevuoAsEIADiYEzSRLFSuyR/jzxbsLCV86470IepiAbYFFxJoS++vq+3jh7QG4eHXXdlR7mMdNgcYJgdGZIezfsHiyDyQjrqBQCsGJVfbehOsVKbMNtigLhrSYpqNbdZ1x1A+PytWNE+bWAoK73RURXLy2aU3T+48ychMghAAMTVuKSbxUrtrOuOAH06HeEyrx+67gDcePJsQf/y73ddd2NLBwc8Hcl5rw1isyOD8rIMbeOA7xKAOBuVdKlYqV2xeOozEKZzEd16BeirW490//s5193YkPGkI3lPIzskEGQP7bFaFZxIYwDSdN0BANadkvQ5QQhiZrJRLV923QmEJpb5NP98o6nFJfdnWuQy/paroV1GrpmhnDKDpDhHXeoCEFuJq8VKrWSjHQDWjIkgBPEx2aiWg877iOq2rlSK8Da7Hc3NL6l2o+m0D5vzPXaTHY39CeSJl7oABECijUm64roTwC4uhxB8SHZm3EsW2kDM3bnX0q3bT51ce7t8j80e/bi48XsS0qMvrWtULfVf031MUr3/rqBPLcV0WTuqGtVyl3NM3TPVqgrmj+3ff6hgzlcoFSu1szHY2tIUW0LTpiU/52PSdUf2olipjcZ19h72/P7f7+rtoyMa2R/OAX4Zzy+xu9uWq+1kRwa1+nyJsrz9qQfVcFoDkGn1P6vDNo9omG5UyydcdwI7M1sfm1v9W7FSOyX/dOlxi5c8X6zUpiJ+VshnjWr5gutOIDTTks40quUwJ0xsXYsJN3um5b+esbO4tKrfXf9Gf/93/yXwa3We79GzjKeBg0NaaT231i/Yk9YtWDZmcihNCFjQqJanzHaUd+QfMmjDqOJ9KB2SoyX/4MzjIQcfNnMOYjlgjqhYryQ9ebagL75+EOg19prvsZPMcF5eLtt/Q7AurSsgX8qvmtMPbsiARWa14rQ51+OShSbHi5UaJ6bDlZakT+Xne7gcdNbV/4r/+/13Y0fTkoJayR6TnfuJLbEOQCTpi6/u6+03D+itoyPW2z4wIB0asLsLeODQkJafzFttM0WuB9VwWgMQG7NQo8VKbSzsGS0g6RrV8uVipdaSNGGhuU8knbPQDrAXk/JzPaIw2GxaaKNkoY1tmdepHkTbxUotiGb7YWMC1Ll/vtHU3//df9Vg3s7qQsbzA4/hABYrvPyAMsN5rS0s2W8cPUvrFixbQUPJUjsAOpgkXRvbsWL/oEcsjUUk+JD8AW+/CsVKLa6r/jbyNZsW2miLyvuiL3PzS/q9pVPSs56/5SqI4GPjGiODfpSDvaoH1XAqAxCzJcPGTeBjC20A2JqNMqVxHjghvsaKldoF150w6pbaievzru+ff8vbOBOza+LW7ae6c6+/odRgRnpz0E6+x04oy9uzwALmVAYgRt1CG2OmvCgAy8wM8qSFpkoW2kA8nOjz47TsPXDPRyH4NduEbXxNcV1NPNTn5zdtdCLA9pyq3Whqbr63rU0HBvyVDxsD0dbC8q7/JzsyKC+b5mHv3gWZZpDWHBDJT6yxcUMdl3TBQjsAXndd/ZfnPWahH4iBRrVc77cNM6lkK2l5QtJxS231o67+n3eFYqVWsvEah6zU5+c3LfRhQ6NabkYwL6Vni0urqt1o6uTf/rrrzwki32NppbuzPrKHhrTyw4K9CydbM8jG0xyATMnOQ+ZjxSAAKVZql9T/UvTVGBzuhmSxMfvifBYa8WGKIHwsO++bsWKldiEC571clZ0Jt/OK0XkgxUptVP1/H4OoAlRXglZmv/t+Tl98/UAf/PYXu/7frCcdsVRitxeZoZwygwNaW1xx04F4CXS7YGrXosyeThsvbqFYqY1baCdo4/JveP18AKGiyhwcsZF/1PZJBLbq2jpfp1Ss1EqW2gqDjaAriHtQ4u5rX3x1X0+e7byyEFa+x26yo/vcdiA+bBSw2FZqAxDjM0vtRPrAM3PStI1KIHULbQBhYwUEe2IC34uWmhuVnZLSPTP5VLaCkEg/7zaxkThft9DGZoEO7Fyp3ZjR4tLqlv9mM9+jX142o+zIkOtuxEE9yMaj8F5wydYNuRChiidbsXETbjEbjbCZLRT9stEG0uey7O2BLpkDNl26aqmdKHwtuzIrNaU+m5kOqJxyIp+l/inp91/7+8M5z/rhgv3K7s9Tlnd3bMEKitmGVbfUXBSW2V9j+mRjGdpWsAbshY3Vi6aFNpAyZuBpcyvWeZfPCHO2js0KXwVLbQXFxkqNraDtFRYrk0XOV7cebZTmzXj+lqsgz/foWcbTwEFWQXbQDPoso1QHIIatbVijkq5YassmW0v/gdyIgV0QgMAZU/Fp0lJzzrdiSfrUUjtRfd5JkswKTclCU0FOvNUDbNup2o2mtLKqn0cg32MnmeG8MoNprsW0o3rQF0h9AGJmhZqWmhsz1aYiweR+lCw01WpUy6yAwIW4Hn6G5Dgne7PVrrcvTVpsa6xYqbkOqF5jzl6xsfoxHfC24yCqa0XC4tKq7nzzWCMDng6Yj/0DnvZlX34MZT3lMy8/sp42PnrZGTXfY1Wr7AiHE24j8Pdn6gMQw1ayoSSdjUJVLHMTtvVwIPhA6MwebhsrIIncb41wBLQVy0lektl2PGmxyfEoBSHmdb0iO3lftlaLtlMPuH2nFjYFBJ70SpAx4En5zMuPzuBkOPsycDkw4P95u8BlwLQ3+7y3AMTLDygznLfwFb+0tr6u5o/PrbbpQD3oCxCAyPoqiCRNuAxCLN+EpeBvxMBWbK0mzlhqByllVoDrlppzvRXrouzmH0QiCDHPvc8lFSw0Z7Nq2JaSnAciSd89tXfYX2aHwGXIBCZzq/4ZH72cdD5wcMhaQvri6pq+mXzWG4YAAA4oSURBVH2uxdU1K+05Mm0mKwJFAPKSzVUQyQ9CQl9qNysfN2XnJixJdapfIWxmQGOrfG7dUjtItzOyN2A8ZbbIhs4MLGxPKo0XK7XPXa3sdDz3bN0zPg06AddI7O6C54tbl+MNVCYjbzC390Ak4ym7v/+tWLNLK2r++Fxr692dyh5h9TAuQgBimFUQ2wPtS8VK7UpYN2XzQLM1A9RmOzADtlWs1EaLldoV+Qdn2kD5aFgRwMB9wtWAXXZLDLeVJN0J+6BCM9Fn87nXkv/6hCGxxV1sroDsWQ+BSHZksKfVk7aH84t6OL/Y8+dHjK3iTDsiAHmVzX2+bafk35QDm+0yg7YJ2d12JfmrH3WL7QHbMtsWb8pO2ei2xM4wInyNavmC7E1UOduKZWb3zwXQ9Kikz83EWyGA9jcUK7WxYqX2ufytmjafe2GtfkiszgZrj4HIwOG9n5DezveYXeotByWCmmFN2hGAdDAvehAzH6OSrpglamuDq2Kl1j4A8Y7szRh3YvUDgSpWaqVipXapWKk9kz8YK1i+BPlLsM3mRJXLrVhTspuQ3qk98TZhtkdZY+4ZE/InK0o225Y/+Lpguc1tWT6hPnL+fH/OdRd8nYHIwPaHknj5gT2V5U1Ivsdmob0fKYD8uovyb2pWb5pGSX4Zxqb8b/Jne400zaxSSdJJ2Z0p3mwyJqsfpWKlFscNlyei+vqaoDYoh+T/bI0qmJ+xTlHPXzpfrNRslAsNVaNajnBl/+A1quXpYqV2WZKtHL+JYqVWD3HWvdM5+c+TQkDtj8vPD5mWv92op1V1E8R8LP+ZV7DYv82C2AWxm6sK9lmOtkxGXj4jL5fV+vKq1ldez1PJju7T2ve7B06zSytJ2nLVKZTtVxIByGsa1XKrWKmdkb+nNKj9uQX5D6+zxUpN8pdhpyXNmn9vD5o6B2gfms8rBNSnTkEtzyMeYjco3gYreAjKRdkbDI/K/5kL/Z5rnnenFezzTvKfZWPyg27Jf+Y19bJCXUv+c6+gl6/pMfP7UoD96nTZxaRQo1qeNOeHucoHCsyfH8zpV2+NuO7G6zxPXn5gy0DEy2aUHRnS6tyLbT/94fxikrZcdQpt+5VEALIlM8N1TuHtzy0pvJtsN844mo0DbJmK6goT4m/TRJUNZ4uV2lVHA+Cwn3dStJ53kh/8uJywmFIw26ixk20Ckez+vFbnF6W1VzdXrK2v69u5F0nbctUptNUPiRyQbZmqWGFVwoiSy5x6jpizfXAc8BoTLNi8VzqrimWed2ldMWzJ/aRbInPV7j1xWAlrL0wgktmX93NEMp5/NkiHhOZ7bDYZ5sUIQHbQqJbPKeRviGN18zUDceZ6MIH0sHk2SEEOtz+a5OtJV9d36ITrXDFz/Sjnq/Xkedy2KXUEItmD+zYS0hN0vsdOpsI4fLATAcguGtXyGaXjpjwt6bTrTgB9OsMKHsISQDnbs2Gfo9EpRc+7tjOug48OiVsF+S4uKyCbtQORNw7o8eJyUpPNNwt1+5VEANKVFNyUp+XPAjFrjDg7Y7aSAKEx77m6xSZdHlDYft6lYftx1O4XU7K3mhYJz5ccnIZuwerKqh427+k/pxv6YWHJdXfC0HQxcUcA0qUE35QJPpAEURtMIF1sb8WyVeK3J2YrblLzqFryn3mTrjvSyTyDk7cK4vJE9D1qBx7/ceOmHjS/01p27wcTxpST/C8CkD3ouCknZbBeF8EH4i2Sgwmki9k7bXPweN72AX57ZX6mjssvl5sU7Qm3uuuObGPSdQdse74Y/VWQVwKPO/e0urIiL7df8rY/tDBBnB2GSQCyR+amfELxTxi72KiWCT4QZ1OS3onwYAIpYpK4bT4XwiyLuyWTH3FcyTite0oRSDjfiQlkJx13w6of5qKbP7FV4CFJymTl5Ybddi48n7oaBxKA9KBRLU83quXjimfZwqb8m/AFx/0AetWU/x4+TQCNiLGZkD5WrNQuWGyvJ41qudWolk/LL1ISx5+3lqTTMbpfxHFcsa0ffopeDsW2gYfh5Uckz3PUu1C15DC1gACkD2YQf1x2ExCDdFnScWaMEVPT8nM9WPVAJJn3pc0HuvOtWG0mSfUdxSsXclL+KmlsVnCStgry7eN5/bSyruUIVLDdLfCQJC+blzcw6KB3Tjhb/ZA4Cb1vZjn3RLFSOyXpkvwEwqiZlL/lqum4H8BetfenfhrlrRNAh4uSTsnes2BC/kSXc+2yw8VK7VP5Z5aMu+3RtuqSzsX4ntF+DzmrhmbLf8y0NPXFfX3w218o40lDGU+DGWkw+/L3QVtdWdXjew/06O7DLYOOTt7QweA7FA1OVz8kAhBrzAzLlAlEPpFUctsjSQQeiKe6pOvyD8asu+0KsDeNarlVrNTOSbpiqcmxYqV2IUrbZs0z5UyxUrso/3k3rmgMlieVgMmKRrXc7AjyYu+Lr+5rZH9ev3n3iBZW17WwKmlZkvxlkeGsp1xGfmCS8TRsKfd76cWifnj4uKvAQ5K8/IG0JJ5L/tjQ6ZZEAhDLOgKRgvwbs82ZsG5Myz9QZtL1mwvYwrRe3Uc+LWnW/NqM+8ABkPznQLFSm5J//7fhk2KlNhm1ySTTn3PyV0VOSTqp8Gfup+VXIJtK2DPvsvwxRBQCu77VbjQlSb9598hr/7awui5tFMvyg5KcCUaGMtI+E6DkukzLWHqxqAd37umHh4+776DnpSnxvNmolp1vpUxFlo1rJhg5JelD+SsjNm8o0+bjupJ3AwYAxIw5zb2kl888m1LzzCtWauOKQDU0WwbzWZ3821/rjcO9DfTbW7iGs/5qSa5jC9fv/jSrmcc/7T3wMLyhg/IGUnPuRyRKUROAOGACkoJe3pjfV3dBSXu2uCk/gq1b7xwAABaZRPpRvXzmfdjlp6b+mVes1D5XNLZ0W9FvELKV4ayn30839ft//Y+ePt/L5uXtO2ytPxE3ZaraOUcAAgAAEEEmeLvpuh82Deaz+oeTv9Vg3l6+xZdfN/V///UPPX1uZviIlElFRkJLfiXUpuuOSJThBQAAiCSTF+d8v75Ni0uruvpPf9Tikr1T0t840lv1Ki83nJbgQ4pYUSICEAAAgOi6KH8bWmI8ebZgPQjZM8/zK1+lw3QUEs87EYAAAABElEm0P+O6H7Y9ebawUR3LBW8wVSeeR+79QwACAAAQYSYBP1Iz2DbcuddyE4RkBtJU9epiFEvcE4AAAABEXKNaPie/Mlii3Lr9VP/y73dDvWZmcCTU6zlUj9rWqzYCEAAAgHg4rVcPc02Er2490q3bT0O5lpfbJ2XzoVzLsZb890skEYAAAADEgKliFLn9/DbUbjSDD0I8T14+Nasfp6N8UCcBCAAAQEw0quUpJTAfRPKDkCfPFvb8eYOD3ZXS9fIH0pJ4fi7qB3cSgAAAAMSIyQepu+5HEK7+0x/3HIR0dQ5IZsA/9yP5JqOa99GJAAQAACB+TiuBSentgwrn5pestpuSxPNpSedcd6IbBCAAAAAx03E+SGT3+fdqcWlVv7v+jbWDCr2BwTQknjclnYhy3kcnAhAAAIAYMuc7nFACgxBrp6V7nn/oYLK1FPGk880IQAAAAGLKBCGx2HazVzZOS/dy+yUva6U/EdWSv/IRq+14BCAAAAAx1qiWJ5XQ8rx9nZaeycrL77fZnSg6HbfgQyIAAQAAiL0kByG3bj/tKQjJDHZRHSvezkS93O52CEAAAAASIOlByE4HFQ7mc6/82cvmk554fsZ8v2OJAAQAACAhkhyE7HRa+htvvLra4Q0ldvWjnXA+6boj/SAAAQAASJCOICQ2VZG6VbvR1P3v53b8P/6J54lMPG8nnE+57ki/CEAAAAASxgQhiSzR+7v/8832p6Vnskk98TyW1a62QwACAACQQB3nhDQdd8Wq9mnpWwUhXn5E8jwHvQrUtKR3khJ8SAQgAAAAiWUGrcflD2ITY3FpVbUbM68cVOhl8/6p58kypRidcN6txIWIAAAAeF2xUpuQNO66Hza9cXhYJ//21/pf//vf9GDWS1rux8VGtXzBdSeCQAACAACQEsVKbVzSJUmjjrtizdtHR/RiYV5P59Zcd8WWlvwyu7FPNt8OAQgAAECKFCu1MUkTksZc9wWvmZZfZrfpuiNBIgABAABImWKlNirpvKSzrvuCDYndcrUZAQgAAEBKFSu1kqQrStCWrBhqyt9yVXfcj9BQBQsAACClzKD3HUmXHXclrS5LOp6m4ENiBQQAAADaWA2ZkFRw25NUmJa/6pGo8sjdIgABAADAhmKldkHSJ2JbVhBa8nM9Ur3iRAACAACAV5gk9UtK2Lkhjl2UdDlphwr2ggAEAAAAWypWagX51bLG3fYk1iblr3o0HfcjMghAAAAAsCOTH/KJpFOOuxInkyLw2BIBCAAAALrCisiuWpKmROCxIwIQAAAA7IkJRMYlfSyqZkn+WR6fiRyPrhCAAAAAoGfFSm1c0kmlc3vWlKTPGtXylOuOxAkBCAAAAPpmVkVOyV8VGXPbm0BNS/pU0hSrHb0hAAEAAIBVHcHISUklp52xY0rSdflBR9NxX2KPAAQAAACBMWeKlPQyGCk47E63piXV5QcddVY67CIAAQAAQGg6ApIxSR+aX12eut6SH3BcN78ScASMAAQAAABOmS1bBb0MRj40/1SyeJm6+fW6XgYd0wQb4SMAAQAAQKSZVZNeEtsJMAAAAAAAAAAAAAAAAAAAAAAAAAAAAAAAAAAAAAAAAAAAAAAAAAAAAAAAAAAAAAAAAAAAAAAAAAAAAAAAAAAAAAAAAAAAAAAAAAAAAAAAAAAAAAAAAAAAAAAAAAAAAAAAAAAAO/v/4C9BvCnKmBcAAAAASUVORK5CYII=;" parent="1" vertex="1">
          <mxGeometry x="600.5" y="1920" width="73.39" height="20" as="geometry" />
        </mxCell>
        <mxCell id="xbliHczLCTZFfjDGBErI-55" style="edgeStyle=orthogonalEdgeStyle;rounded=0;orthogonalLoop=1;jettySize=auto;html=1;" parent="1" source="xbliHczLCTZFfjDGBErI-27" target="xbliHczLCTZFfjDGBErI-54" edge="1">
          <mxGeometry relative="1" as="geometry" />
        </mxCell>
        <mxCell id="xbliHczLCTZFfjDGBErI-27" value="Salvar resultado das transformações realizadas como uma nova partição com a &lt;u&gt;data de referencia&lt;/u&gt; informada nos &lt;font style=&quot;color: rgb(255, 128, 0);&quot;&gt;parâmetros&lt;/font&gt; e &lt;u&gt;indicador de estorno&lt;/u&gt; = N" style="rounded=0;whiteSpace=wrap;html=1;fillColor=#f5f5f5;fontColor=#333333;strokeColor=#666666;" parent="1" vertex="1">
          <mxGeometry x="800.5" y="1940" width="200" height="80" as="geometry" />
        </mxCell>
        <mxCell id="xbliHczLCTZFfjDGBErI-53" style="edgeStyle=orthogonalEdgeStyle;rounded=0;orthogonalLoop=1;jettySize=auto;html=1;" parent="1" source="xbliHczLCTZFfjDGBErI-28" target="xbliHczLCTZFfjDGBErI-52" edge="1">
          <mxGeometry relative="1" as="geometry" />
        </mxCell>
        <mxCell id="xbliHczLCTZFfjDGBErI-38" value="Nao" style="text;html=1;align=center;verticalAlign=middle;whiteSpace=wrap;rounded=0;" parent="1" vertex="1">
          <mxGeometry x="-259.5" y="2295" width="40" height="20" as="geometry" />
        </mxCell>
        <mxCell id="xbliHczLCTZFfjDGBErI-44" style="edgeStyle=orthogonalEdgeStyle;rounded=0;orthogonalLoop=1;jettySize=auto;html=1;entryX=0;entryY=0.5;entryDx=0;entryDy=0;" parent="1" source="xbliHczLCTZFfjDGBErI-40" target="xbliHczLCTZFfjDGBErI-43" edge="1">
          <mxGeometry relative="1" as="geometry" />
        </mxCell>
        <mxCell id="xbliHczLCTZFfjDGBErI-40" value="Verifica nas bases de origem qual a partição mais recente de 2 meses anterior em relação a &lt;u&gt;data de referencia&lt;/u&gt;" style="rounded=0;whiteSpace=wrap;html=1;fillColor=#f5f5f5;fontColor=#333333;strokeColor=#666666;" parent="1" vertex="1">
          <mxGeometry x="-199.5" y="2340" width="160" height="80" as="geometry" />
        </mxCell>
        <mxCell id="xbliHczLCTZFfjDGBErI-46" style="edgeStyle=orthogonalEdgeStyle;rounded=0;orthogonalLoop=1;jettySize=auto;html=1;entryX=0.5;entryY=1;entryDx=0;entryDy=0;" parent="1" source="xbliHczLCTZFfjDGBErI-43" target="xbliHczLCTZFfjDGBErI-11" edge="1">
          <mxGeometry relative="1" as="geometry" />
        </mxCell>
        <mxCell id="xbliHczLCTZFfjDGBErI-49" style="edgeStyle=orthogonalEdgeStyle;rounded=0;orthogonalLoop=1;jettySize=auto;html=1;" parent="1" source="xbliHczLCTZFfjDGBErI-43" edge="1">
          <mxGeometry relative="1" as="geometry">
            <mxPoint x="160.5" y="2380" as="targetPoint" />
          </mxGeometry>
        </mxCell>
        <mxCell id="xbliHczLCTZFfjDGBErI-43" value="Encontrado&lt;div&gt;partição&amp;nbsp;&lt;span style=&quot;background-color: transparent; color: light-dark(rgb(0, 0, 0), rgb(255, 255, 255));&quot;&gt;?&lt;/span&gt;&lt;/div&gt;" style="rhombus;whiteSpace=wrap;html=1;fontSize=12;fillColor=#f5f5f5;fontColor=#333333;strokeColor=#666666;" parent="1" vertex="1">
          <mxGeometry x="0.5" y="2332.5" width="100" height="95" as="geometry" />
        </mxCell>
        <mxCell id="xbliHczLCTZFfjDGBErI-45" value="Sim" style="text;html=1;align=center;verticalAlign=middle;whiteSpace=wrap;rounded=0;" parent="1" vertex="1">
          <mxGeometry x="50.5" y="2315" width="40" height="20" as="geometry" />
        </mxCell>
        <mxCell id="xbliHczLCTZFfjDGBErI-47" value="Nao" style="text;html=1;align=center;verticalAlign=middle;whiteSpace=wrap;rounded=0;" parent="1" vertex="1">
          <mxGeometry x="90.5" y="2380" width="40" height="20" as="geometry" />
        </mxCell>
        <mxCell id="xbliHczLCTZFfjDGBErI-51" value="Erro" style="rounded=1;whiteSpace=wrap;html=1;arcSize=50;fillColor=#f8cecc;strokeColor=#b85450;" parent="1" vertex="1">
          <mxGeometry x="160.5" y="2360" width="80" height="40" as="geometry" />
        </mxCell>
        <mxCell id="xbliHczLCTZFfjDGBErI-52" value="Sucesso" style="rounded=1;whiteSpace=wrap;html=1;arcSize=50;fillColor=#d5e8d4;strokeColor=#82b366;" parent="1" vertex="1">
          <mxGeometry x="840.5" y="2210" width="80" height="40" as="geometry" />
        </mxCell>
        <mxCell id="xbliHczLCTZFfjDGBErI-54" value="Sucesso" style="rounded=1;whiteSpace=wrap;html=1;arcSize=50;fillColor=#d5e8d4;strokeColor=#82b366;" parent="1" vertex="1">
          <mxGeometry x="1040.5" y="1960" width="80" height="40" as="geometry" />
        </mxCell>
        <mxCell id="xbliHczLCTZFfjDGBErI-56" value="&lt;b&gt;Receber como &lt;font style=&quot;color: rgb(255, 128, 0);&quot;&gt;parâmetro&lt;/font&gt;:&amp;nbsp;&lt;/b&gt;&lt;div&gt;- &lt;u style=&quot;&quot;&gt;data de referencia&lt;/u&gt;: data a ser processada&lt;/div&gt;&lt;div&gt;- &lt;u&gt;defasagem&lt;/u&gt;: valor padrão 1&lt;/div&gt;" style="rounded=0;whiteSpace=wrap;html=1;align=left;spacingLeft=10;fillColor=#f5f5f5;fontColor=#333333;strokeColor=#666666;" parent="1" vertex="1">
          <mxGeometry x="-829.5" y="2200" width="260" height="80" as="geometry" />
        </mxCell>
        <mxCell id="xbliHczLCTZFfjDGBErI-58" value="Configurar logs do Emr do CloudWatch" style="text;html=1;align=center;verticalAlign=middle;whiteSpace=wrap;rounded=0;" parent="1" vertex="1">
          <mxGeometry x="-950" y="-450" width="240" height="40" as="geometry" />
        </mxCell>
        <mxCell id="xbliHczLCTZFfjDGBErI-73" style="edgeStyle=orthogonalEdgeStyle;rounded=0;orthogonalLoop=1;jettySize=auto;html=1;entryX=0;entryY=0.5;entryDx=0;entryDy=0;" parent="1" source="xbliHczLCTZFfjDGBErI-60" edge="1">
          <mxGeometry relative="1" as="geometry">
            <mxPoint x="-800" y="1459.9999999999995" as="targetPoint" />
          </mxGeometry>
        </mxCell>
        <mxCell id="xbliHczLCTZFfjDGBErI-60" value="INICIO" style="rounded=1;whiteSpace=wrap;html=1;arcSize=50;fillColor=#dae8fc;strokeColor=#6c8ebf;" parent="1" vertex="1">
          <mxGeometry x="-960" y="1430" width="120" height="60" as="geometry" />
        </mxCell>
        <mxCell id="xbliHczLCTZFfjDGBErI-61" value="Fluxo da pipeline de processamento dos books de carga batch mensal" style="text;html=1;align=center;verticalAlign=middle;whiteSpace=wrap;rounded=0;fontStyle=1;fontSize=20;" parent="1" vertex="1">
          <mxGeometry x="-920" y="1040" width="1720" height="40" as="geometry" />
        </mxCell>
        <mxCell id="xbliHczLCTZFfjDGBErI-62" value="" style="edgeStyle=orthogonalEdgeStyle;rounded=0;orthogonalLoop=1;jettySize=auto;html=1;entryX=0;entryY=0.563;entryDx=0;entryDy=0;entryPerimeter=0;" parent="1" source="xbliHczLCTZFfjDGBErI-19" target="xbliHczLCTZFfjDGBErI-28" edge="1">
          <mxGeometry relative="1" as="geometry">
            <mxPoint x="535.5" y="2155" as="sourcePoint" />
            <mxPoint x="640.5" y="2230.04" as="targetPoint" />
            <Array as="points">
              <mxPoint x="535.5" y="2235" />
            </Array>
          </mxGeometry>
        </mxCell>
        <mxCell id="xbliHczLCTZFfjDGBErI-28" value="Salvar resultado das transformações realizadas como uma nova partição com a &lt;u&gt;data de referencia&lt;/u&gt; informada nos &lt;font style=&quot;color: rgb(255, 128, 0);&quot;&gt;parâmetros&lt;/font&gt; e &lt;u&gt;indicador de estorno&lt;/u&gt; = N" style="rounded=0;whiteSpace=wrap;html=1;fillColor=#f5f5f5;fontColor=#333333;strokeColor=#666666;" parent="1" vertex="1">
          <mxGeometry x="600.5" y="2190" width="200" height="80" as="geometry" />
        </mxCell>
        <mxCell id="xbliHczLCTZFfjDGBErI-65" style="edgeStyle=orthogonalEdgeStyle;rounded=0;orthogonalLoop=1;jettySize=auto;html=1;entryX=0;entryY=0.5;entryDx=0;entryDy=0;" parent="1" source="xbliHczLCTZFfjDGBErI-64" target="xbliHczLCTZFfjDGBErI-60" edge="1">
          <mxGeometry relative="1" as="geometry" />
        </mxCell>
        <mxCell id="xbliHczLCTZFfjDGBErI-64" value="Payload" style="shape=parallelogram;perimeter=parallelogramPerimeter;whiteSpace=wrap;html=1;fixedSize=1;" parent="1" vertex="1">
          <mxGeometry x="-1200" y="1430" width="120" height="60" as="geometry" />
        </mxCell>
        <mxCell id="xbliHczLCTZFfjDGBErI-67" value="&lt;b&gt;&lt;font style=&quot;font-size: 14px;&quot;&gt;Tabelas KG3:&lt;/font&gt;&lt;/b&gt;&lt;div&gt;&lt;br&gt;&lt;/div&gt;&lt;div&gt;- Defasagem M-1&lt;/div&gt;&lt;div&gt;- Particionamento:&lt;/div&gt;&lt;div&gt;&lt;span style=&quot;white-space: pre;&quot;&gt;&#x9;&lt;/span&gt;dat_rfrc -&amp;gt; data de referencia da informação&lt;br&gt;&lt;/div&gt;&lt;div&gt;- ind_esto -&amp;gt; não sera uma partição usando tabelas iceberg&lt;/div&gt;" style="text;html=1;align=left;verticalAlign=top;whiteSpace=wrap;rounded=0;spacingLeft=10;spacingTop=5;spacingRight=10;strokeColor=default;" parent="1" vertex="1">
          <mxGeometry x="-800" y="120" width="360" height="200" as="geometry" />
        </mxCell>
        <mxCell id="xbliHczLCTZFfjDGBErI-84" style="edgeStyle=orthogonalEdgeStyle;rounded=0;orthogonalLoop=1;jettySize=auto;html=1;" parent="1" source="xbliHczLCTZFfjDGBErI-74" target="xbliHczLCTZFfjDGBErI-82" edge="1">
          <mxGeometry relative="1" as="geometry" />
        </mxCell>
        <mxCell id="xbliHczLCTZFfjDGBErI-74" value="&lt;b&gt;Receber como &lt;font style=&quot;color: rgb(255, 128, 0);&quot;&gt;parâmetro&lt;/font&gt;:&lt;/b&gt;&lt;div&gt;&lt;div&gt;- Uma lista de dicionários.&lt;/div&gt;&lt;/div&gt;&lt;div&gt;- Cada dicionario contem como chave e valor:&lt;/div&gt;&lt;div&gt;&lt;span style=&quot;white-space: pre;&quot;&gt;&#x9;&lt;/span&gt;referencia: valor da data de referencia&lt;br&gt;&lt;/div&gt;&lt;div&gt;&lt;span style=&quot;white-space: pre;&quot;&gt;&#x9;&lt;/span&gt;nome da tabela: valor booleano para se vai processar a tabela ou não&lt;br&gt;&lt;/div&gt;&lt;div&gt;&lt;br&gt;&lt;/div&gt;&lt;div&gt;&lt;b&gt;Exemplo:&lt;/b&gt;&lt;/div&gt;&lt;div&gt;&lt;br&gt;&lt;/div&gt;&lt;div&gt;&lt;br&gt;&lt;/div&gt;" style="rounded=0;whiteSpace=wrap;html=1;align=left;spacingLeft=10;verticalAlign=top;" parent="1" vertex="1">
          <mxGeometry x="-800" y="1220" width="440" height="470" as="geometry" />
        </mxCell>
        <mxCell id="xbliHczLCTZFfjDGBErI-66" value="&lt;div style=&quot;color: rgb(212, 212, 212); background-color: rgb(30, 30, 30); font-family: &amp;quot;Droid Sans Mono&amp;quot;, &amp;quot;monospace&amp;quot;, monospace; line-height: 19px; white-space: pre;&quot;&gt;&lt;div style=&quot;color: rgb(59, 59, 59); background-color: rgb(255, 255, 255); line-height: 19px;&quot;&gt;&lt;div style=&quot;line-height: 19px;&quot;&gt;&lt;div style=&quot;line-height: 19px;&quot;&gt;&lt;div&gt;{&lt;/div&gt;&lt;div&gt;    &lt;span style=&quot;color: #0451a5;&quot;&gt;&quot;payload&quot;&lt;/span&gt;: [&lt;/div&gt;&lt;div&gt;        {&lt;/div&gt;&lt;div&gt;            &lt;span style=&quot;color: #0451a5;&quot;&gt;&quot;dat_rfrc&quot;&lt;/span&gt;: &lt;span style=&quot;color: #098658;&quot;&gt;202405&lt;/span&gt;,&lt;/div&gt;&lt;div&gt;            &lt;span style=&quot;color: #0451a5;&quot;&gt;&quot;tb_spec_book_bacen_refs&quot;&lt;/span&gt;: &lt;span style=&quot;color: #0000ff;&quot;&gt;true&lt;/span&gt;,&lt;/div&gt;&lt;div&gt;            &lt;span style=&quot;color: #0451a5;&quot;&gt;&quot;tb_spec_book_bacen&quot;&lt;/span&gt;: &lt;span style=&quot;color: #0000ff;&quot;&gt;true&lt;/span&gt;,&lt;/div&gt;&lt;div&gt;            &lt;span style=&quot;color: #0451a5;&quot;&gt;&quot;tb_spec_book_bx_refs&quot;&lt;/span&gt;: &lt;span style=&quot;color: #0000ff;&quot;&gt;false&lt;/span&gt;,&lt;/div&gt;&lt;div&gt;            &lt;span style=&quot;color: #0451a5;&quot;&gt;&quot;tb_spec_book_bx&quot;&lt;/span&gt;: &lt;span style=&quot;color: #0000ff;&quot;&gt;false&lt;/span&gt;&lt;/div&gt;&lt;div&gt;        },&lt;/div&gt;&lt;div&gt;        {&lt;/div&gt;&lt;div&gt;            &lt;span style=&quot;color: #0451a5;&quot;&gt;&quot;dat_rfrc&quot;&lt;/span&gt;: &lt;span style=&quot;color: #098658;&quot;&gt;202404&lt;/span&gt;,&lt;/div&gt;&lt;div&gt;            &lt;span style=&quot;color: #0451a5;&quot;&gt;&quot;tb_spec_book_bacen_refs&quot;&lt;/span&gt;: &lt;span style=&quot;color: #0000ff;&quot;&gt;true&lt;/span&gt;,&lt;/div&gt;&lt;div&gt;            &lt;span style=&quot;color: #0451a5;&quot;&gt;&quot;tb_spec_book_bacen&quot;&lt;/span&gt;: &lt;span style=&quot;color: #0000ff;&quot;&gt;true&lt;/span&gt;,&lt;/div&gt;&lt;div&gt;            &lt;span style=&quot;color: #0451a5;&quot;&gt;&quot;tb_spec_book_bx_refs&quot;&lt;/span&gt;: &lt;span style=&quot;color: #0000ff;&quot;&gt;false&lt;/span&gt;,&lt;/div&gt;&lt;div&gt;            &lt;span style=&quot;color: #0451a5;&quot;&gt;&quot;tb_spec_book_bx&quot;&lt;/span&gt;: &lt;span style=&quot;color: #0000ff;&quot;&gt;false&lt;/span&gt;&lt;/div&gt;&lt;div&gt;        }&lt;/div&gt;&lt;div&gt;    ]&lt;/div&gt;&lt;div&gt;}&lt;/div&gt;&lt;/div&gt;&lt;/div&gt;&lt;/div&gt;&lt;/div&gt;" style="rounded=0;whiteSpace=wrap;html=1;align=left;spacing=0;strokeColor=none;fontSize=11;" parent="1" vertex="1">
          <mxGeometry x="-790" y="1330" width="400" height="350" as="geometry" />
        </mxCell>
        <mxCell id="xbliHczLCTZFfjDGBErI-80" value="&lt;b&gt;&lt;font style=&quot;font-size: 14px;&quot;&gt;Requisitos:&lt;/font&gt;&lt;/b&gt;&lt;div&gt;&lt;br&gt;&lt;/div&gt;&lt;div&gt;- Suportar carga histórica e carga única&lt;/div&gt;&lt;div&gt;- Suportar opção de escolha das tabelas que serão processadas&lt;/div&gt;&lt;div&gt;-&amp;nbsp;&lt;/div&gt;" style="text;html=1;align=left;verticalAlign=top;whiteSpace=wrap;rounded=0;spacingLeft=10;spacingTop=5;spacingRight=10;strokeColor=default;" parent="1" vertex="1">
          <mxGeometry x="-1320" y="120" width="440" height="200" as="geometry" />
        </mxCell>
        <mxCell id="cFZGeTlfudvo2hPoTAWU-4" style="edgeStyle=orthogonalEdgeStyle;rounded=0;orthogonalLoop=1;jettySize=auto;html=1;" edge="1" parent="1" source="xbliHczLCTZFfjDGBErI-82" target="cFZGeTlfudvo2hPoTAWU-2">
          <mxGeometry relative="1" as="geometry" />
        </mxCell>
        <mxCell id="xbliHczLCTZFfjDGBErI-82" value="Ter ordem e grupos de dependência definidos&amp;nbsp;" style="rounded=0;whiteSpace=wrap;html=1;fillColor=#f5f5f5;fontColor=#333333;strokeColor=#666666;" parent="1" vertex="1">
          <mxGeometry x="-280" y="1199.5" width="190" height="61" as="geometry" />
        </mxCell>
        <mxCell id="xbliHczLCTZFfjDGBErI-83" value="&lt;span style=&quot;color: rgb(0, 0, 0);&quot;&gt;Fluxo do job de processamento de tabelas com carga batch mensal&lt;/span&gt;" style="rounded=0;whiteSpace=wrap;html=1;fillColor=#f5f5f5;fontColor=#333333;strokeColor=#666666;fontSize=12;fontStyle=0;dashed=1;" parent="1" vertex="1">
          <mxGeometry x="315" y="1538.75" width="240" height="60" as="geometry" />
        </mxCell>
        <mxCell id="cFZGeTlfudvo2hPoTAWU-51" style="edgeStyle=orthogonalEdgeStyle;rounded=0;orthogonalLoop=1;jettySize=auto;html=1;" edge="1" parent="1" source="xbliHczLCTZFfjDGBErI-86" target="cFZGeTlfudvo2hPoTAWU-46">
          <mxGeometry relative="1" as="geometry" />
        </mxCell>
        <mxCell id="xbliHczLCTZFfjDGBErI-86" value="Executar a etapa de processamento da tabela se estiver com status = True na referencia informada, seguindo a ordem correta de processamento e passando a &lt;u&gt;data de referencia&lt;/u&gt; para o job de execução." style="rounded=0;whiteSpace=wrap;html=1;fillColor=#f5f5f5;fontColor=#333333;strokeColor=#666666;" parent="1" vertex="1">
          <mxGeometry x="315" y="1438.75" width="240" height="100" as="geometry" />
        </mxCell>
        <mxCell id="dD0auXpfXk1v1Xhit70D-13" style="edgeStyle=orthogonalEdgeStyle;rounded=0;orthogonalLoop=1;jettySize=auto;html=1;" parent="1" source="xbliHczLCTZFfjDGBErI-90" target="xbliHczLCTZFfjDGBErI-110" edge="1">
          <mxGeometry relative="1" as="geometry">
            <Array as="points">
              <mxPoint x="-3000" y="1919" />
              <mxPoint x="-3000" y="1853" />
            </Array>
          </mxGeometry>
        </mxCell>
        <mxCell id="xbliHczLCTZFfjDGBErI-90" value="API Gateway" style="sketch=0;points=[[0,0,0],[0.25,0,0],[0.5,0,0],[0.75,0,0],[1,0,0],[0,1,0],[0.25,1,0],[0.5,1,0],[0.75,1,0],[1,1,0],[0,0.25,0],[0,0.5,0],[0,0.75,0],[1,0.25,0],[1,0.5,0],[1,0.75,0]];outlineConnect=0;fontColor=#232F3E;fillColor=#8C4FFF;strokeColor=#ffffff;dashed=0;verticalLabelPosition=bottom;verticalAlign=top;align=center;html=1;fontSize=12;fontStyle=0;aspect=fixed;shape=mxgraph.aws4.resourceIcon;resIcon=mxgraph.aws4.api_gateway;" parent="1" vertex="1">
          <mxGeometry x="-3160" y="1880" width="78" height="78" as="geometry" />
        </mxCell>
        <mxCell id="xbliHczLCTZFfjDGBErI-91" value="Módulos de definição de parâmetros" style="text;html=1;align=center;verticalAlign=middle;whiteSpace=wrap;rounded=0;fontStyle=1;fontSize=20;" parent="1" vertex="1">
          <mxGeometry x="-2961" y="920" width="1440" height="40" as="geometry" />
        </mxCell>
        <mxCell id="xbliHczLCTZFfjDGBErI-104" style="edgeStyle=orthogonalEdgeStyle;rounded=0;orthogonalLoop=1;jettySize=auto;html=1;" parent="1" source="xbliHczLCTZFfjDGBErI-93" target="xbliHczLCTZFfjDGBErI-97" edge="1">
          <mxGeometry relative="1" as="geometry" />
        </mxCell>
        <mxCell id="xbliHczLCTZFfjDGBErI-93" value="INICIO" style="rounded=1;whiteSpace=wrap;html=1;arcSize=50;fillColor=#dae8fc;strokeColor=#6c8ebf;" parent="1" vertex="1">
          <mxGeometry x="-2852" y="1230" width="120" height="60" as="geometry" />
        </mxCell>
        <mxCell id="xbliHczLCTZFfjDGBErI-96" value="Módulo agendado mensalmente" style="text;html=1;align=center;verticalAlign=middle;whiteSpace=wrap;rounded=0;fontStyle=1;fontSize=16;" parent="1" vertex="1">
          <mxGeometry x="-2842" y="1040" width="1241" height="40" as="geometry" />
        </mxCell>
        <mxCell id="xbliHczLCTZFfjDGBErI-103" style="edgeStyle=orthogonalEdgeStyle;rounded=0;orthogonalLoop=1;jettySize=auto;html=1;entryX=0;entryY=0.5;entryDx=0;entryDy=0;" parent="1" source="xbliHczLCTZFfjDGBErI-97" target="xbliHczLCTZFfjDGBErI-98" edge="1">
          <mxGeometry relative="1" as="geometry" />
        </mxCell>
        <mxCell id="xbliHczLCTZFfjDGBErI-97" value="Pegar data atual no formato &amp;lt;yyyyMM&amp;gt;" style="rounded=0;whiteSpace=wrap;html=1;fillColor=#f5f5f5;fontColor=#333333;strokeColor=#666666;" parent="1" vertex="1">
          <mxGeometry x="-2690" y="1230" width="198" height="60" as="geometry" />
        </mxCell>
        <mxCell id="xbliHczLCTZFfjDGBErI-102" style="edgeStyle=orthogonalEdgeStyle;rounded=0;orthogonalLoop=1;jettySize=auto;html=1;entryX=0;entryY=0.5;entryDx=0;entryDy=0;" parent="1" source="xbliHczLCTZFfjDGBErI-98" target="xbliHczLCTZFfjDGBErI-100" edge="1">
          <mxGeometry relative="1" as="geometry" />
        </mxCell>
        <mxCell id="xbliHczLCTZFfjDGBErI-98" value="Selecionar o nome de todas tabelas que serão processadas" style="rounded=0;whiteSpace=wrap;html=1;fillColor=#f5f5f5;fontColor=#333333;strokeColor=#666666;" parent="1" vertex="1">
          <mxGeometry x="-2452" y="1230" width="240" height="60" as="geometry" />
        </mxCell>
        <mxCell id="cFZGeTlfudvo2hPoTAWU-12" style="edgeStyle=orthogonalEdgeStyle;rounded=0;orthogonalLoop=1;jettySize=auto;html=1;" edge="1" parent="1" source="xbliHczLCTZFfjDGBErI-100" target="cFZGeTlfudvo2hPoTAWU-11">
          <mxGeometry relative="1" as="geometry" />
        </mxCell>
        <mxCell id="xbliHczLCTZFfjDGBErI-100" value="&lt;div&gt;Preparar&amp;nbsp;&lt;i&gt;payload&lt;/i&gt; informando a data de referencia a ser processada, junto com nome de todas as tabelas com valor igual a True.&lt;/div&gt;&lt;div&gt;&lt;br&gt;&lt;/div&gt;&lt;div&gt;&lt;b&gt;Exemplo:&lt;/b&gt;&lt;/div&gt;&lt;div&gt;&lt;br&gt;&lt;/div&gt;&lt;div&gt;&lt;br&gt;&lt;/div&gt;" style="rounded=0;whiteSpace=wrap;html=1;align=left;spacingLeft=10;verticalAlign=top;" parent="1" vertex="1">
          <mxGeometry x="-2172" y="1120" width="400" height="280" as="geometry" />
        </mxCell>
        <mxCell id="xbliHczLCTZFfjDGBErI-101" value="&lt;div style=&quot;color: rgb(212, 212, 212); background-color: rgb(30, 30, 30); font-family: &amp;quot;Droid Sans Mono&amp;quot;, &amp;quot;monospace&amp;quot;, monospace; line-height: 19px; white-space: pre;&quot;&gt;&lt;div style=&quot;color: rgb(59, 59, 59); background-color: rgb(255, 255, 255); line-height: 19px;&quot;&gt;&lt;div style=&quot;line-height: 19px;&quot;&gt;&lt;div style=&quot;line-height: 19px;&quot;&gt;&lt;div&gt;{&lt;/div&gt;&lt;div&gt;    &lt;span style=&quot;color: rgb(4, 81, 165);&quot;&gt;&quot;payload&quot;&lt;/span&gt;: [&lt;/div&gt;&lt;div&gt;        {&lt;/div&gt;&lt;div&gt;            &lt;span style=&quot;color: rgb(4, 81, 165);&quot;&gt;&quot;dat_rfrc&quot;&lt;/span&gt;: &lt;span style=&quot;color: rgb(9, 134, 88);&quot;&gt;202405&lt;/span&gt;,&lt;/div&gt;&lt;div&gt;            &lt;span style=&quot;color: rgb(4, 81, 165);&quot;&gt;&quot;tb_spec_book_bacen_refs&quot;&lt;/span&gt;: &lt;span style=&quot;color: rgb(0, 0, 255);&quot;&gt;true&lt;/span&gt;,&lt;/div&gt;&lt;div&gt;            &lt;span style=&quot;color: rgb(4, 81, 165);&quot;&gt;&quot;tb_spec_book_bacen&quot;&lt;/span&gt;: &lt;span style=&quot;color: rgb(0, 0, 255);&quot;&gt;true&lt;/span&gt;,&lt;/div&gt;&lt;div&gt;            &lt;span style=&quot;color: rgb(4, 81, 165);&quot;&gt;&quot;tb_spec_book_bx_refs&quot;&lt;/span&gt;: &lt;span style=&quot;color: rgb(0, 0, 255);&quot;&gt;true&lt;/span&gt;,&lt;/div&gt;&lt;div&gt;            &lt;span style=&quot;color: rgb(4, 81, 165);&quot;&gt;&quot;tb_spec_book_bx&quot;&lt;/span&gt;: &lt;span style=&quot;color: rgb(0, 0, 255); background-color: light-dark(rgb(255, 255, 255), rgb(18, 18, 18));&quot;&gt;true&lt;/span&gt;&lt;/div&gt;&lt;div&gt;        }&lt;/div&gt;&lt;div&gt;    ]&lt;/div&gt;&lt;div&gt;}&lt;/div&gt;&lt;/div&gt;&lt;/div&gt;&lt;/div&gt;&lt;/div&gt;" style="rounded=0;whiteSpace=wrap;html=1;align=left;spacing=0;strokeColor=none;fontSize=11;" parent="1" vertex="1">
          <mxGeometry x="-2162" y="1188" width="320" height="202" as="geometry" />
        </mxCell>
        <mxCell id="xbliHczLCTZFfjDGBErI-108" value="" style="rounded=0;whiteSpace=wrap;html=1;fillColor=none;dashed=1;strokeWidth=1;" parent="1" vertex="1">
          <mxGeometry x="-2920" y="1520" width="1399" height="520" as="geometry" />
        </mxCell>
        <mxCell id="dD0auXpfXk1v1Xhit70D-9" style="edgeStyle=orthogonalEdgeStyle;rounded=0;orthogonalLoop=1;jettySize=auto;html=1;" parent="1" source="xbliHczLCTZFfjDGBErI-110" target="dD0auXpfXk1v1Xhit70D-1" edge="1">
          <mxGeometry relative="1" as="geometry" />
        </mxCell>
        <mxCell id="xbliHczLCTZFfjDGBErI-110" value="INICIO" style="rounded=1;whiteSpace=wrap;html=1;arcSize=50;fillColor=#dae8fc;strokeColor=#6c8ebf;" parent="1" vertex="1">
          <mxGeometry x="-2781" y="1822.5" width="120" height="60" as="geometry" />
        </mxCell>
        <mxCell id="xbliHczLCTZFfjDGBErI-111" value="Módulo de intervenção" style="text;html=1;align=center;verticalAlign=middle;whiteSpace=wrap;rounded=0;fontStyle=1;fontSize=16;" parent="1" vertex="1">
          <mxGeometry x="-2830" y="1520" width="1209" height="40" as="geometry" />
        </mxCell>
        <mxCell id="xbliHczLCTZFfjDGBErI-125" style="edgeStyle=orthogonalEdgeStyle;rounded=0;orthogonalLoop=1;jettySize=auto;html=1;" parent="1" source="xbliHczLCTZFfjDGBErI-115" target="xbliHczLCTZFfjDGBErI-122" edge="1">
          <mxGeometry relative="1" as="geometry">
            <Array as="points">
              <mxPoint x="-1641" y="1730.5" />
            </Array>
          </mxGeometry>
        </mxCell>
        <mxCell id="xbliHczLCTZFfjDGBErI-115" value="Validar formato do &lt;i&gt;payload&lt;/i&gt;" style="rounded=0;whiteSpace=wrap;html=1;fillColor=#f5f5f5;fontColor=#333333;strokeColor=#666666;" parent="1" vertex="1">
          <mxGeometry x="-1881" y="1690.5" width="160" height="60" as="geometry" />
        </mxCell>
        <mxCell id="xbliHczLCTZFfjDGBErI-116" value="&lt;div&gt;&lt;span style=&quot;color: rgb(51, 51, 51); text-align: center;&quot;&gt;Selecionar&amp;nbsp;&lt;/span&gt;&lt;b style=&quot;color: rgb(51, 51, 51); text-align: center;&quot;&gt;&lt;font style=&quot;color: rgb(255, 128, 0);&quot;&gt;parâmetro&lt;/font&gt;&lt;/b&gt;&lt;span style=&quot;color: rgb(51, 51, 51); text-align: center;&quot;&gt;&amp;nbsp;&lt;/span&gt;&lt;span style=&quot;color: rgb(51, 51, 51); text-align: center;&quot;&gt;para processamento. Definido de acordo com a necessidade.&lt;/span&gt;&lt;/div&gt;&lt;div&gt;&lt;span style=&quot;color: rgb(51, 51, 51); text-align: center;&quot;&gt;&lt;br&gt;&lt;/span&gt;&lt;/div&gt;&lt;div&gt;&lt;b&gt;Exemplo:&lt;/b&gt;&lt;/div&gt;&lt;div&gt;&lt;br&gt;&lt;/div&gt;&lt;div&gt;&lt;br&gt;&lt;/div&gt;" style="rounded=0;whiteSpace=wrap;html=1;align=left;spacingLeft=10;verticalAlign=top;" parent="1" vertex="1">
          <mxGeometry x="-2271" y="1580.5" width="350" height="280" as="geometry" />
        </mxCell>
        <mxCell id="xbliHczLCTZFfjDGBErI-117" value="&lt;div style=&quot;color: rgb(212, 212, 212); background-color: rgb(30, 30, 30); font-family: &amp;quot;Droid Sans Mono&amp;quot;, &amp;quot;monospace&amp;quot;, monospace; line-height: 19px; white-space: pre;&quot;&gt;&lt;div style=&quot;color: rgb(59, 59, 59); background-color: rgb(255, 255, 255); line-height: 19px;&quot;&gt;&lt;div style=&quot;line-height: 19px;&quot;&gt;&lt;div style=&quot;line-height: 19px;&quot;&gt;&lt;div&gt;{&lt;/div&gt;&lt;div&gt;    &lt;span style=&quot;color: rgb(4, 81, 165);&quot;&gt;&quot;payload&quot;&lt;/span&gt;: [&lt;/div&gt;&lt;div&gt;        {&lt;/div&gt;&lt;div&gt;            &lt;span style=&quot;color: rgb(4, 81, 165);&quot;&gt;&quot;dat_rfrc&quot;&lt;/span&gt;: &lt;span style=&quot;color: rgb(9, 134, 88);&quot;&gt;202405&lt;/span&gt;,&lt;/div&gt;&lt;div&gt;            &lt;span style=&quot;color: rgb(4, 81, 165);&quot;&gt;&quot;tb_spec_book_bacen_refs&quot;&lt;/span&gt;: &lt;span style=&quot;color: rgb(0, 0, 255);&quot;&gt;true&lt;/span&gt;,&lt;/div&gt;&lt;div&gt;            &lt;span style=&quot;color: rgb(4, 81, 165);&quot;&gt;&quot;tb_spec_book_bacen&quot;&lt;/span&gt;: &lt;span style=&quot;color: rgb(0, 0, 255);&quot;&gt;true&lt;/span&gt;,&lt;/div&gt;&lt;div&gt;            &lt;span style=&quot;color: rgb(4, 81, 165);&quot;&gt;&quot;tb_spec_book_bx_refs&quot;&lt;/span&gt;: &lt;span style=&quot;color: rgb(0, 0, 255);&quot;&gt;true&lt;/span&gt;,&lt;/div&gt;&lt;div&gt;            &lt;span style=&quot;color: rgb(4, 81, 165);&quot;&gt;&quot;tb_spec_book_bx&quot;&lt;/span&gt;: &lt;span style=&quot;color: rgb(0, 0, 255); background-color: light-dark(rgb(255, 255, 255), rgb(18, 18, 18));&quot;&gt;true&lt;/span&gt;&lt;/div&gt;&lt;div&gt;        }&lt;/div&gt;&lt;div&gt;    ]&lt;/div&gt;&lt;div&gt;}&lt;/div&gt;&lt;/div&gt;&lt;/div&gt;&lt;/div&gt;&lt;/div&gt;" style="rounded=0;whiteSpace=wrap;html=1;align=left;spacing=0;strokeColor=none;fontSize=11;" parent="1" vertex="1">
          <mxGeometry x="-2261" y="1650.5" width="320" height="202" as="geometry" />
        </mxCell>
        <mxCell id="xbliHczLCTZFfjDGBErI-118" value="Serviço:" style="text;html=1;align=left;verticalAlign=middle;whiteSpace=wrap;rounded=0;spacingLeft=3;fontStyle=1;fontSize=14;" parent="1" vertex="1">
          <mxGeometry x="-2761" y="1600.5" width="70" height="40" as="geometry" />
        </mxCell>
        <mxCell id="cFZGeTlfudvo2hPoTAWU-8" style="edgeStyle=orthogonalEdgeStyle;rounded=0;orthogonalLoop=1;jettySize=auto;html=1;entryX=0.5;entryY=0;entryDx=0;entryDy=0;" edge="1" parent="1" source="xbliHczLCTZFfjDGBErI-122" target="xbliHczLCTZFfjDGBErI-128">
          <mxGeometry relative="1" as="geometry" />
        </mxCell>
        <mxCell id="cFZGeTlfudvo2hPoTAWU-14" style="edgeStyle=orthogonalEdgeStyle;rounded=0;orthogonalLoop=1;jettySize=auto;html=1;entryX=0;entryY=0.5;entryDx=0;entryDy=0;" edge="1" parent="1" source="xbliHczLCTZFfjDGBErI-122" target="xbliHczLCTZFfjDGBErI-140">
          <mxGeometry relative="1" as="geometry">
            <Array as="points">
              <mxPoint x="-1440" y="1841" />
              <mxPoint x="-1440" y="1460" />
            </Array>
          </mxGeometry>
        </mxCell>
        <mxCell id="xbliHczLCTZFfjDGBErI-122" value="Enviar payload" style="rounded=0;whiteSpace=wrap;html=1;fillColor=#f5f5f5;fontColor=#333333;strokeColor=#666666;" parent="1" vertex="1">
          <mxGeometry x="-1721" y="1810.5" width="160" height="60" as="geometry" />
        </mxCell>
        <mxCell id="xbliHczLCTZFfjDGBErI-127" style="edgeStyle=orthogonalEdgeStyle;rounded=0;orthogonalLoop=1;jettySize=auto;html=1;entryX=-0.011;entryY=0.505;entryDx=0;entryDy=0;entryPerimeter=0;" parent="1" source="xbliHczLCTZFfjDGBErI-116" target="xbliHczLCTZFfjDGBErI-115" edge="1">
          <mxGeometry relative="1" as="geometry" />
        </mxCell>
        <mxCell id="xbliHczLCTZFfjDGBErI-128" value="Sucesso" style="rounded=1;whiteSpace=wrap;html=1;arcSize=50;fillColor=#d5e8d4;strokeColor=#82b366;" parent="1" vertex="1">
          <mxGeometry x="-1681" y="1910.5" width="80" height="40" as="geometry" />
        </mxCell>
        <mxCell id="xbliHczLCTZFfjDGBErI-136" value="Sucesso" style="rounded=1;whiteSpace=wrap;html=1;arcSize=50;fillColor=#d5e8d4;strokeColor=#82b366;" parent="1" vertex="1">
          <mxGeometry x="-1681" y="1330" width="80" height="40" as="geometry" />
        </mxCell>
        <mxCell id="xbliHczLCTZFfjDGBErI-140" value="Payload" style="shape=parallelogram;perimeter=parallelogramPerimeter;whiteSpace=wrap;html=1;fixedSize=1;" parent="1" vertex="1">
          <mxGeometry x="-1392" y="1430" width="120" height="60" as="geometry" />
        </mxCell>
        <mxCell id="xbliHczLCTZFfjDGBErI-144" style="edgeStyle=orthogonalEdgeStyle;rounded=0;orthogonalLoop=1;jettySize=auto;html=1;" parent="1" source="xbliHczLCTZFfjDGBErI-143" target="xbliHczLCTZFfjDGBErI-93" edge="1">
          <mxGeometry relative="1" as="geometry" />
        </mxCell>
        <mxCell id="xbliHczLCTZFfjDGBErI-143" value="EventBridge&lt;div&gt;Scheduler&lt;/div&gt;" style="sketch=0;outlineConnect=0;fontColor=#232F3E;gradientColor=none;fillColor=#E7157B;strokeColor=none;dashed=0;verticalLabelPosition=bottom;verticalAlign=top;align=center;html=1;fontSize=12;fontStyle=0;aspect=fixed;pointerEvents=1;shape=mxgraph.aws4.eventbridge_scheduler;" parent="1" vertex="1">
          <mxGeometry x="-3170" y="1221" width="78" height="78" as="geometry" />
        </mxCell>
        <mxCell id="xbliHczLCTZFfjDGBErI-147" value="Lambda" style="sketch=0;points=[[0,0,0],[0.25,0,0],[0.5,0,0],[0.75,0,0],[1,0,0],[0,1,0],[0.25,1,0],[0.5,1,0],[0.75,1,0],[1,1,0],[0,0.25,0],[0,0.5,0],[0,0.75,0],[1,0.25,0],[1,0.5,0],[1,0.75,0]];outlineConnect=0;fontColor=#232F3E;fillColor=#ED7100;strokeColor=#ffffff;dashed=0;verticalLabelPosition=bottom;verticalAlign=top;align=center;html=1;fontSize=12;fontStyle=0;aspect=fixed;shape=mxgraph.aws4.resourceIcon;resIcon=mxgraph.aws4.lambda;" parent="1" vertex="1">
          <mxGeometry x="-2691" y="1600.5" width="40" height="40" as="geometry" />
        </mxCell>
        <mxCell id="xbliHczLCTZFfjDGBErI-148" value="Serviço:" style="text;html=1;align=left;verticalAlign=middle;whiteSpace=wrap;rounded=0;spacingLeft=3;fontStyle=1;fontSize=14;" parent="1" vertex="1">
          <mxGeometry x="-2842" y="1120" width="70" height="40" as="geometry" />
        </mxCell>
        <mxCell id="xbliHczLCTZFfjDGBErI-149" value="Lambda" style="sketch=0;points=[[0,0,0],[0.25,0,0],[0.5,0,0],[0.75,0,0],[1,0,0],[0,1,0],[0.25,1,0],[0.5,1,0],[0.75,1,0],[1,1,0],[0,0.25,0],[0,0.5,0],[0,0.75,0],[1,0.25,0],[1,0.5,0],[1,0.75,0]];outlineConnect=0;fontColor=#232F3E;fillColor=#ED7100;strokeColor=#ffffff;dashed=0;verticalLabelPosition=bottom;verticalAlign=top;align=center;html=1;fontSize=12;fontStyle=0;aspect=fixed;shape=mxgraph.aws4.resourceIcon;resIcon=mxgraph.aws4.lambda;" parent="1" vertex="1">
          <mxGeometry x="-2772" y="1120" width="40" height="40" as="geometry" />
        </mxCell>
        <mxCell id="xbliHczLCTZFfjDGBErI-150" value="Serviço:" style="text;html=1;align=left;verticalAlign=middle;whiteSpace=wrap;rounded=0;spacingLeft=3;fontStyle=1;fontSize=14;" parent="1" vertex="1">
          <mxGeometry x="-1000" y="1120" width="70" height="40" as="geometry" />
        </mxCell>
        <mxCell id="xbliHczLCTZFfjDGBErI-152" value="Step Functions" style="sketch=0;points=[[0,0,0],[0.25,0,0],[0.5,0,0],[0.75,0,0],[1,0,0],[0,1,0],[0.25,1,0],[0.5,1,0],[0.75,1,0],[1,1,0],[0,0.25,0],[0,0.5,0],[0,0.75,0],[1,0.25,0],[1,0.5,0],[1,0.75,0]];outlineConnect=0;fontColor=#232F3E;fillColor=#E7157B;strokeColor=#ffffff;dashed=0;verticalLabelPosition=bottom;verticalAlign=top;align=center;html=1;fontSize=12;fontStyle=0;aspect=fixed;shape=mxgraph.aws4.resourceIcon;resIcon=mxgraph.aws4.step_functions;" parent="1" vertex="1">
          <mxGeometry x="-930" y="1120" width="40" height="40" as="geometry" />
        </mxCell>
        <mxCell id="xbliHczLCTZFfjDGBErI-153" value="Serviço:" style="text;html=1;align=left;verticalAlign=middle;whiteSpace=wrap;rounded=0;spacingLeft=3;fontStyle=1;fontSize=14;" parent="1" vertex="1">
          <mxGeometry x="-1000" y="1919.5" width="70" height="40" as="geometry" />
        </mxCell>
        <mxCell id="xbliHczLCTZFfjDGBErI-155" value="Glue Job" style="sketch=0;points=[[0,0,0],[0.25,0,0],[0.5,0,0],[0.75,0,0],[1,0,0],[0,1,0],[0.25,1,0],[0.5,1,0],[0.75,1,0],[1,1,0],[0,0.25,0],[0,0.5,0],[0,0.75,0],[1,0.25,0],[1,0.5,0],[1,0.75,0]];outlineConnect=0;fontColor=#232F3E;fillColor=#8C4FFF;strokeColor=#ffffff;dashed=0;verticalLabelPosition=bottom;verticalAlign=top;align=center;html=1;fontSize=12;fontStyle=0;aspect=fixed;shape=mxgraph.aws4.resourceIcon;resIcon=mxgraph.aws4.glue;" parent="1" vertex="1">
          <mxGeometry x="-880" y="1919.5" width="40.5" height="40.5" as="geometry" />
        </mxCell>
        <mxCell id="xbliHczLCTZFfjDGBErI-156" value="Emr" style="sketch=0;points=[[0,0,0],[0.25,0,0],[0.5,0,0],[0.75,0,0],[1,0,0],[0,1,0],[0.25,1,0],[0.5,1,0],[0.75,1,0],[1,1,0],[0,0.25,0],[0,0.5,0],[0,0.75,0],[1,0.25,0],[1,0.5,0],[1,0.75,0]];outlineConnect=0;fontColor=#232F3E;fillColor=#8C4FFF;strokeColor=#ffffff;dashed=0;verticalLabelPosition=bottom;verticalAlign=top;align=center;html=1;fontSize=12;fontStyle=0;aspect=fixed;shape=mxgraph.aws4.resourceIcon;resIcon=mxgraph.aws4.emr;" parent="1" vertex="1">
          <mxGeometry x="-930" y="1919.5" width="40" height="40" as="geometry" />
        </mxCell>
        <mxCell id="xbliHczLCTZFfjDGBErI-157" value="&lt;b&gt;&lt;font style=&quot;font-size: 14px;&quot;&gt;Lambda:&lt;/font&gt;&lt;/b&gt;&lt;div&gt;&lt;br&gt;&lt;/div&gt;&lt;div&gt;-&amp;nbsp;&lt;span style=&quot;background-color: transparent; color: light-dark(rgb(0, 0, 0), rgb(255, 255, 255));&quot;&gt;Ter um arquivo de constantes onde informamos todas as tabelas da pipeline de books.&lt;/span&gt;&lt;br&gt;&lt;/div&gt;" style="text;html=1;align=left;verticalAlign=top;whiteSpace=wrap;rounded=0;spacingLeft=10;spacingTop=5;spacingRight=10;strokeColor=default;" parent="1" vertex="1">
          <mxGeometry x="-360" y="120" width="440" height="200" as="geometry" />
        </mxCell>
        <mxCell id="xbliHczLCTZFfjDGBErI-158" value="&lt;b&gt;&lt;font style=&quot;font-size: 14px;&quot;&gt;Glue:&lt;/font&gt;&lt;/b&gt;&lt;div&gt;&lt;br&gt;&lt;/div&gt;&lt;div&gt;-&amp;nbsp;&lt;span style=&quot;background-color: transparent; color: light-dark(rgb(0, 0, 0), rgb(255, 255, 255));&quot;&gt;Colocar parâmetro definindo a defasagem que sera usado para busca da partição na tabela de origem? Esse parâmetro teria valor padrão de 1 (M-1)&lt;/span&gt;&lt;br&gt;&lt;/div&gt;" style="text;html=1;align=left;verticalAlign=top;whiteSpace=wrap;rounded=0;spacingLeft=10;spacingTop=5;spacingRight=10;strokeColor=default;" parent="1" vertex="1">
          <mxGeometry x="-360" y="360" width="440" height="200" as="geometry" />
        </mxCell>
        <mxCell id="dD0auXpfXk1v1Xhit70D-12" style="edgeStyle=orthogonalEdgeStyle;rounded=0;orthogonalLoop=1;jettySize=auto;html=1;entryX=0;entryY=0.5;entryDx=0;entryDy=0;" parent="1" source="dD0auXpfXk1v1Xhit70D-1" target="dD0auXpfXk1v1Xhit70D-2" edge="1">
          <mxGeometry relative="1" as="geometry" />
        </mxCell>
        <mxCell id="dD0auXpfXk1v1Xhit70D-1" value="Verificar&amp;nbsp;&lt;font style=&quot;color: rgb(255, 128, 0);&quot;&gt;parâmetros&lt;/font&gt; recebidos" style="rounded=0;whiteSpace=wrap;html=1;fillColor=#f5f5f5;fontColor=#333333;strokeColor=#666666;" parent="1" vertex="1">
          <mxGeometry x="-2621" y="1822.5" width="160" height="60" as="geometry" />
        </mxCell>
        <mxCell id="dD0auXpfXk1v1Xhit70D-6" style="edgeStyle=orthogonalEdgeStyle;rounded=0;orthogonalLoop=1;jettySize=auto;html=1;entryX=0;entryY=0.5;entryDx=0;entryDy=0;" parent="1" source="dD0auXpfXk1v1Xhit70D-2" target="xbliHczLCTZFfjDGBErI-116" edge="1">
          <mxGeometry relative="1" as="geometry">
            <Array as="points">
              <mxPoint x="-2371" y="1720.5" />
            </Array>
          </mxGeometry>
        </mxCell>
        <mxCell id="dD0auXpfXk1v1Xhit70D-11" style="edgeStyle=orthogonalEdgeStyle;rounded=0;orthogonalLoop=1;jettySize=auto;html=1;entryX=0;entryY=0.5;entryDx=0;entryDy=0;" parent="1" source="dD0auXpfXk1v1Xhit70D-2" target="dD0auXpfXk1v1Xhit70D-5" edge="1">
          <mxGeometry relative="1" as="geometry">
            <Array as="points">
              <mxPoint x="-2371" y="1950.5" />
            </Array>
          </mxGeometry>
        </mxCell>
        <mxCell id="dD0auXpfXk1v1Xhit70D-2" value="Existe&amp;nbsp;&lt;div&gt;&lt;font style=&quot;color: rgb(255, 128, 0);&quot;&gt;parâmetros&lt;/font&gt;?&lt;/div&gt;" style="rhombus;whiteSpace=wrap;html=1;fontSize=12;fillColor=#f5f5f5;fontColor=#333333;strokeColor=#666666;" parent="1" vertex="1">
          <mxGeometry x="-2421" y="1805" width="100" height="95" as="geometry" />
        </mxCell>
        <mxCell id="dD0auXpfXk1v1Xhit70D-3" value="Sim" style="text;html=1;align=center;verticalAlign=middle;whiteSpace=wrap;rounded=0;" parent="1" vertex="1">
          <mxGeometry x="-2371" y="1785" width="40" height="20" as="geometry" />
        </mxCell>
        <mxCell id="dD0auXpfXk1v1Xhit70D-4" value="Nao" style="text;html=1;align=center;verticalAlign=middle;whiteSpace=wrap;rounded=0;" parent="1" vertex="1">
          <mxGeometry x="-2371" y="1900" width="40" height="20" as="geometry" />
        </mxCell>
        <mxCell id="dD0auXpfXk1v1Xhit70D-10" style="edgeStyle=orthogonalEdgeStyle;rounded=0;orthogonalLoop=1;jettySize=auto;html=1;entryX=0;entryY=0.5;entryDx=0;entryDy=0;" parent="1" source="dD0auXpfXk1v1Xhit70D-5" target="xbliHczLCTZFfjDGBErI-122" edge="1">
          <mxGeometry relative="1" as="geometry">
            <Array as="points">
              <mxPoint x="-1801" y="1950.5" />
              <mxPoint x="-1801" y="1840.5" />
            </Array>
          </mxGeometry>
        </mxCell>
        <mxCell id="dD0auXpfXk1v1Xhit70D-5" value="Selecionar &lt;i&gt;payload&lt;/i&gt; de carga histórica definido no serviço." style="rounded=0;whiteSpace=wrap;html=1;fillColor=#f5f5f5;fontColor=#333333;strokeColor=#666666;" parent="1" vertex="1">
          <mxGeometry x="-2271" y="1920" width="350" height="60" as="geometry" />
        </mxCell>
        <mxCell id="cFZGeTlfudvo2hPoTAWU-28" style="edgeStyle=orthogonalEdgeStyle;rounded=0;orthogonalLoop=1;jettySize=auto;html=1;entryX=1;entryY=0.5;entryDx=0;entryDy=0;" edge="1" parent="1" source="cFZGeTlfudvo2hPoTAWU-1" target="cFZGeTlfudvo2hPoTAWU-18">
          <mxGeometry relative="1" as="geometry" />
        </mxCell>
        <mxCell id="cFZGeTlfudvo2hPoTAWU-1" value="Executar Data Quality na tabela logo apos ser processada" style="rounded=0;whiteSpace=wrap;html=1;fillColor=#f5f5f5;fontColor=#333333;strokeColor=#666666;" vertex="1" parent="1">
          <mxGeometry x="555" y="1641.25" width="240" height="60" as="geometry" />
        </mxCell>
        <mxCell id="cFZGeTlfudvo2hPoTAWU-34" style="edgeStyle=orthogonalEdgeStyle;rounded=0;orthogonalLoop=1;jettySize=auto;html=1;entryX=0;entryY=0.5;entryDx=0;entryDy=0;" edge="1" parent="1" source="cFZGeTlfudvo2hPoTAWU-2" target="cFZGeTlfudvo2hPoTAWU-21">
          <mxGeometry relative="1" as="geometry" />
        </mxCell>
        <mxCell id="cFZGeTlfudvo2hPoTAWU-2" value="Percorrer cada item da lista de &lt;font&gt;&lt;span style=&quot;color: light-dark(rgb(255, 128, 0), rgb(206, 97, 0));&quot;&gt;parâmetros&lt;/span&gt;&lt;font style=&quot;color: rgb(0, 0, 0);&quot;&gt; na ordem recebida&lt;/font&gt;&lt;/font&gt;" style="rounded=0;whiteSpace=wrap;html=1;fillColor=#f5f5f5;fontColor=#333333;strokeColor=#666666;" vertex="1" parent="1">
          <mxGeometry x="-280" y="1320" width="190" height="80" as="geometry" />
        </mxCell>
        <mxCell id="cFZGeTlfudvo2hPoTAWU-30" style="edgeStyle=orthogonalEdgeStyle;rounded=0;orthogonalLoop=1;jettySize=auto;html=1;entryX=0;entryY=0.5;entryDx=0;entryDy=0;" edge="1" parent="1" source="cFZGeTlfudvo2hPoTAWU-5" target="cFZGeTlfudvo2hPoTAWU-6">
          <mxGeometry relative="1" as="geometry" />
        </mxCell>
        <mxCell id="cFZGeTlfudvo2hPoTAWU-5" value="Delegar para cada grupo a &lt;u&gt;data de referencia&lt;/u&gt; a ser processada" style="rounded=0;whiteSpace=wrap;html=1;fillColor=#f5f5f5;fontColor=#333333;strokeColor=#666666;" vertex="1" parent="1">
          <mxGeometry x="130" y="1318.5" width="170" height="81.5" as="geometry" />
        </mxCell>
        <mxCell id="cFZGeTlfudvo2hPoTAWU-29" style="edgeStyle=orthogonalEdgeStyle;rounded=0;orthogonalLoop=1;jettySize=auto;html=1;" edge="1" parent="1" source="cFZGeTlfudvo2hPoTAWU-6" target="xbliHczLCTZFfjDGBErI-86">
          <mxGeometry relative="1" as="geometry" />
        </mxCell>
        <mxCell id="cFZGeTlfudvo2hPoTAWU-6" value="Executar sequencialmente cada tabela do grupo" style="rounded=0;whiteSpace=wrap;html=1;fillColor=#f5f5f5;fontColor=#333333;strokeColor=#666666;" vertex="1" parent="1">
          <mxGeometry x="360" y="1318.5" width="150" height="81.5" as="geometry" />
        </mxCell>
        <mxCell id="cFZGeTlfudvo2hPoTAWU-7" value="&lt;b&gt;&lt;font style=&quot;font-size: 14px;&quot;&gt;Step Functions:&lt;/font&gt;&lt;/b&gt;&lt;div&gt;&lt;br&gt;&lt;/div&gt;&lt;div&gt;- Cada grupo tem uma data de referencia&lt;/div&gt;&lt;div&gt;-&amp;nbsp;&lt;span style=&quot;background-color: transparent; color: light-dark(rgb(0, 0, 0), rgb(255, 255, 255));&quot;&gt;Payload de entrada não define os grupos de dependência nem a ordem de execução das tabelas dentro de um grupo.&lt;/span&gt;&lt;br&gt;&lt;/div&gt;&lt;div&gt;&lt;span style=&quot;background-color: transparent; color: light-dark(rgb(0, 0, 0), rgb(255, 255, 255));&quot;&gt;- A ordem de execução dentro das tabelas e definido na estrutura do step function.&lt;/span&gt;&lt;/div&gt;" style="text;html=1;align=left;verticalAlign=top;whiteSpace=wrap;rounded=0;spacingLeft=10;spacingTop=5;spacingRight=10;strokeColor=default;" vertex="1" parent="1">
          <mxGeometry x="-360" y="600" width="440" height="200" as="geometry" />
        </mxCell>
        <mxCell id="cFZGeTlfudvo2hPoTAWU-9" value="&lt;span style=&quot;color: rgb(0, 0, 0);&quot;&gt;Fluxo da pipeline de processamento dos books de carga batch mensal&lt;/span&gt;" style="rounded=0;whiteSpace=wrap;html=1;fillColor=#f5f5f5;fontColor=#333333;strokeColor=#666666;fontSize=12;fontStyle=0;dashed=1;" vertex="1" parent="1">
          <mxGeometry x="-1360" y="1580" width="240" height="60" as="geometry" />
        </mxCell>
        <mxCell id="cFZGeTlfudvo2hPoTAWU-10" value="Inicia pipeline de processamento dos books enviando o payload" style="rounded=0;whiteSpace=wrap;html=1;fillColor=#f5f5f5;fontColor=#333333;strokeColor=#666666;" vertex="1" parent="1">
          <mxGeometry x="-1360" y="1520" width="240" height="60" as="geometry" />
        </mxCell>
        <mxCell id="cFZGeTlfudvo2hPoTAWU-13" style="edgeStyle=orthogonalEdgeStyle;rounded=0;orthogonalLoop=1;jettySize=auto;html=1;entryX=0.5;entryY=0;entryDx=0;entryDy=0;" edge="1" parent="1" source="cFZGeTlfudvo2hPoTAWU-11" target="xbliHczLCTZFfjDGBErI-136">
          <mxGeometry relative="1" as="geometry" />
        </mxCell>
        <mxCell id="cFZGeTlfudvo2hPoTAWU-15" style="edgeStyle=orthogonalEdgeStyle;rounded=0;orthogonalLoop=1;jettySize=auto;html=1;entryX=0;entryY=0.5;entryDx=0;entryDy=0;" edge="1" parent="1" source="cFZGeTlfudvo2hPoTAWU-11" target="xbliHczLCTZFfjDGBErI-140">
          <mxGeometry relative="1" as="geometry">
            <Array as="points">
              <mxPoint x="-1440" y="1260" />
              <mxPoint x="-1440" y="1460" />
            </Array>
          </mxGeometry>
        </mxCell>
        <mxCell id="cFZGeTlfudvo2hPoTAWU-11" value="Enviar payload" style="rounded=0;whiteSpace=wrap;html=1;fillColor=#f5f5f5;fontColor=#333333;strokeColor=#666666;" vertex="1" parent="1">
          <mxGeometry x="-1721" y="1230" width="160" height="60" as="geometry" />
        </mxCell>
        <mxCell id="cFZGeTlfudvo2hPoTAWU-32" style="edgeStyle=orthogonalEdgeStyle;rounded=0;orthogonalLoop=1;jettySize=auto;html=1;" edge="1" parent="1" source="cFZGeTlfudvo2hPoTAWU-18" target="cFZGeTlfudvo2hPoTAWU-27">
          <mxGeometry relative="1" as="geometry" />
        </mxCell>
        <mxCell id="cFZGeTlfudvo2hPoTAWU-18" value="Passou no Data Quality ?" style="rhombus;whiteSpace=wrap;html=1;fontSize=12;fillColor=#f5f5f5;fontColor=#333333;strokeColor=#666666;" vertex="1" parent="1">
          <mxGeometry x="40" y="1618.75" width="110" height="105" as="geometry" />
        </mxCell>
        <mxCell id="cFZGeTlfudvo2hPoTAWU-19" value="Nao" style="text;html=1;align=center;verticalAlign=middle;whiteSpace=wrap;rounded=0;" vertex="1" parent="1">
          <mxGeometry x="130" y="1610.5" width="40" height="20" as="geometry" />
        </mxCell>
        <mxCell id="cFZGeTlfudvo2hPoTAWU-20" value="Sim" style="text;html=1;align=center;verticalAlign=middle;whiteSpace=wrap;rounded=0;" vertex="1" parent="1">
          <mxGeometry y="1680" width="40" height="20" as="geometry" />
        </mxCell>
        <mxCell id="cFZGeTlfudvo2hPoTAWU-31" style="edgeStyle=orthogonalEdgeStyle;rounded=0;orthogonalLoop=1;jettySize=auto;html=1;" edge="1" parent="1" source="cFZGeTlfudvo2hPoTAWU-21" target="cFZGeTlfudvo2hPoTAWU-5">
          <mxGeometry relative="1" as="geometry" />
        </mxCell>
        <mxCell id="cFZGeTlfudvo2hPoTAWU-35" style="edgeStyle=orthogonalEdgeStyle;rounded=0;orthogonalLoop=1;jettySize=auto;html=1;entryX=0;entryY=0.5;entryDx=0;entryDy=0;" edge="1" parent="1" source="cFZGeTlfudvo2hPoTAWU-21" target="cFZGeTlfudvo2hPoTAWU-24">
          <mxGeometry relative="1" as="geometry">
            <Array as="points">
              <mxPoint x="20" y="1203" />
            </Array>
          </mxGeometry>
        </mxCell>
        <mxCell id="cFZGeTlfudvo2hPoTAWU-21" value="Todos grupos&amp;nbsp;&lt;div&gt;foram&amp;nbsp;&lt;/div&gt;&lt;div&gt;executados ?&lt;/div&gt;" style="rhombus;whiteSpace=wrap;html=1;fontSize=12;fillColor=#f5f5f5;fontColor=#333333;strokeColor=#666666;" vertex="1" parent="1">
          <mxGeometry x="-40" y="1303.25" width="120" height="113.5" as="geometry" />
        </mxCell>
        <mxCell id="cFZGeTlfudvo2hPoTAWU-22" value="Nao" style="text;html=1;align=center;verticalAlign=middle;whiteSpace=wrap;rounded=0;" vertex="1" parent="1">
          <mxGeometry x="70" y="1360" width="40" height="20" as="geometry" />
        </mxCell>
        <mxCell id="cFZGeTlfudvo2hPoTAWU-23" value="Sim" style="text;html=1;align=center;verticalAlign=middle;whiteSpace=wrap;rounded=0;" vertex="1" parent="1">
          <mxGeometry x="20" y="1283.25" width="40" height="20" as="geometry" />
        </mxCell>
        <mxCell id="cFZGeTlfudvo2hPoTAWU-37" style="edgeStyle=orthogonalEdgeStyle;rounded=0;orthogonalLoop=1;jettySize=auto;html=1;" edge="1" parent="1" source="cFZGeTlfudvo2hPoTAWU-24" target="cFZGeTlfudvo2hPoTAWU-25">
          <mxGeometry relative="1" as="geometry" />
        </mxCell>
        <mxCell id="cFZGeTlfudvo2hPoTAWU-41" style="edgeStyle=orthogonalEdgeStyle;rounded=0;orthogonalLoop=1;jettySize=auto;html=1;entryX=0;entryY=0.5;entryDx=0;entryDy=0;" edge="1" parent="1" source="cFZGeTlfudvo2hPoTAWU-24" target="cFZGeTlfudvo2hPoTAWU-39">
          <mxGeometry relative="1" as="geometry">
            <Array as="points">
              <mxPoint x="170" y="1118" />
            </Array>
          </mxGeometry>
        </mxCell>
        <mxCell id="cFZGeTlfudvo2hPoTAWU-24" value="Todos&amp;nbsp;&lt;div&gt;grupos&amp;nbsp;&lt;span style=&quot;background-color: transparent; color: light-dark(rgb(51, 51, 51), rgb(193, 193, 193));&quot;&gt;foram&amp;nbsp;&lt;/span&gt;&lt;div&gt;executados com sucesso ?&lt;/div&gt;&lt;/div&gt;" style="rhombus;whiteSpace=wrap;html=1;fontSize=12;fillColor=#f5f5f5;fontColor=#333333;strokeColor=#666666;" vertex="1" parent="1">
          <mxGeometry x="110" y="1145.5" width="120" height="115" as="geometry" />
        </mxCell>
        <mxCell id="cFZGeTlfudvo2hPoTAWU-25" value="Sucesso" style="rounded=1;whiteSpace=wrap;html=1;arcSize=50;fillColor=#d5e8d4;strokeColor=#82b366;" vertex="1" parent="1">
          <mxGeometry x="280" y="1183" width="80" height="40" as="geometry" />
        </mxCell>
        <mxCell id="cFZGeTlfudvo2hPoTAWU-27" value="Erro" style="rounded=1;whiteSpace=wrap;html=1;arcSize=50;fillColor=#f8cecc;strokeColor=#b85450;" vertex="1" parent="1">
          <mxGeometry x="55" y="1548.75" width="80" height="40" as="geometry" />
        </mxCell>
        <mxCell id="cFZGeTlfudvo2hPoTAWU-33" style="edgeStyle=orthogonalEdgeStyle;rounded=0;orthogonalLoop=1;jettySize=auto;html=1;entryX=0.428;entryY=0.998;entryDx=0;entryDy=0;entryPerimeter=0;" edge="1" parent="1" source="cFZGeTlfudvo2hPoTAWU-18" target="cFZGeTlfudvo2hPoTAWU-2">
          <mxGeometry relative="1" as="geometry" />
        </mxCell>
        <mxCell id="cFZGeTlfudvo2hPoTAWU-36" value="Sim" style="text;html=1;align=center;verticalAlign=middle;whiteSpace=wrap;rounded=0;" vertex="1" parent="1">
          <mxGeometry x="220" y="1203.5" width="40" height="20" as="geometry" />
        </mxCell>
        <mxCell id="cFZGeTlfudvo2hPoTAWU-38" value="Nao" style="text;html=1;align=center;verticalAlign=middle;whiteSpace=wrap;rounded=0;" vertex="1" parent="1">
          <mxGeometry x="170" y="1130" width="40" height="20" as="geometry" />
        </mxCell>
        <mxCell id="cFZGeTlfudvo2hPoTAWU-39" value="Erro" style="rounded=1;whiteSpace=wrap;html=1;arcSize=50;fillColor=#f8cecc;strokeColor=#b85450;" vertex="1" parent="1">
          <mxGeometry x="280" y="1098.5" width="80" height="40" as="geometry" />
        </mxCell>
        <mxCell id="cFZGeTlfudvo2hPoTAWU-42" value="202506" style="text;html=1;align=center;verticalAlign=middle;whiteSpace=wrap;rounded=0;" vertex="1" parent="1">
          <mxGeometry x="-439.5" y="2520" width="80" height="40" as="geometry" />
        </mxCell>
        <mxCell id="cFZGeTlfudvo2hPoTAWU-44" value="Estorno" style="text;html=1;align=center;verticalAlign=middle;whiteSpace=wrap;rounded=0;strokeColor=default;dashed=1;" vertex="1" parent="1">
          <mxGeometry x="600.5" y="1889.5" width="400" height="30" as="geometry" />
        </mxCell>
        <mxCell id="cFZGeTlfudvo2hPoTAWU-45" value="Congelar" style="text;html=1;align=center;verticalAlign=middle;whiteSpace=wrap;rounded=0;strokeColor=default;dashed=1;" vertex="1" parent="1">
          <mxGeometry x="-199.5" y="2420" width="160" height="30" as="geometry" />
        </mxCell>
        <mxCell id="cFZGeTlfudvo2hPoTAWU-52" style="edgeStyle=orthogonalEdgeStyle;rounded=0;orthogonalLoop=1;jettySize=auto;html=1;" edge="1" parent="1" source="cFZGeTlfudvo2hPoTAWU-46" target="cFZGeTlfudvo2hPoTAWU-1">
          <mxGeometry relative="1" as="geometry" />
        </mxCell>
        <mxCell id="cFZGeTlfudvo2hPoTAWU-53" style="edgeStyle=orthogonalEdgeStyle;rounded=0;orthogonalLoop=1;jettySize=auto;html=1;" edge="1" parent="1" source="cFZGeTlfudvo2hPoTAWU-46" target="cFZGeTlfudvo2hPoTAWU-47">
          <mxGeometry relative="1" as="geometry" />
        </mxCell>
        <mxCell id="cFZGeTlfudvo2hPoTAWU-46" value="Finalizado com sucesso?" style="rhombus;whiteSpace=wrap;html=1;fontSize=12;fillColor=#f5f5f5;fontColor=#333333;strokeColor=#666666;" vertex="1" parent="1">
          <mxGeometry x="620" y="1436.25" width="110" height="105" as="geometry" />
        </mxCell>
        <mxCell id="cFZGeTlfudvo2hPoTAWU-47" value="Erro" style="rounded=1;whiteSpace=wrap;html=1;arcSize=50;fillColor=#f8cecc;strokeColor=#b85450;" vertex="1" parent="1">
          <mxGeometry x="780" y="1468.75" width="80" height="40" as="geometry" />
        </mxCell>
        <mxCell id="cFZGeTlfudvo2hPoTAWU-49" value="Sim" style="text;html=1;align=center;verticalAlign=middle;whiteSpace=wrap;rounded=0;" vertex="1" parent="1">
          <mxGeometry x="680" y="1541.25" width="40" height="20" as="geometry" />
        </mxCell>
        <mxCell id="cFZGeTlfudvo2hPoTAWU-50" value="Nao" style="text;html=1;align=center;verticalAlign=middle;whiteSpace=wrap;rounded=0;" vertex="1" parent="1">
          <mxGeometry x="720" y="1468.75" width="40" height="20" as="geometry" />
        </mxCell>
        <mxCell id="cFZGeTlfudvo2hPoTAWU-55" style="edgeStyle=orthogonalEdgeStyle;rounded=0;orthogonalLoop=1;jettySize=auto;html=1;entryX=0;entryY=0.5;entryDx=0;entryDy=0;" edge="1" parent="1" source="cFZGeTlfudvo2hPoTAWU-54" target="xbliHczLCTZFfjDGBErI-110">
          <mxGeometry relative="1" as="geometry">
            <Array as="points">
              <mxPoint x="-3000" y="1770" />
              <mxPoint x="-3000" y="1853" />
            </Array>
          </mxGeometry>
        </mxCell>
        <mxCell id="cFZGeTlfudvo2hPoTAWU-54" value="EventBridge&lt;div&gt;Scheduler&lt;/div&gt;" style="sketch=0;outlineConnect=0;fontColor=#232F3E;gradientColor=none;fillColor=#E7157B;strokeColor=none;dashed=0;verticalLabelPosition=bottom;verticalAlign=top;align=center;html=1;fontSize=12;fontStyle=0;aspect=fixed;pointerEvents=1;shape=mxgraph.aws4.eventbridge_scheduler;" vertex="1" parent="1">
          <mxGeometry x="-3170" y="1723.75" width="78" height="78" as="geometry" />
        </mxCell>
        <mxCell id="cFZGeTlfudvo2hPoTAWU-57" value="Primeira carga (carga histórica)" style="text;html=1;align=center;verticalAlign=middle;whiteSpace=wrap;rounded=0;strokeColor=default;dashed=1;" vertex="1" parent="1">
          <mxGeometry x="-2271" y="1980" width="351" height="30" as="geometry" />
        </mxCell>
        <mxCell id="cFZGeTlfudvo2hPoTAWU-58" value="Sns" style="sketch=0;points=[[0,0,0],[0.25,0,0],[0.5,0,0],[0.75,0,0],[1,0,0],[0,1,0],[0.25,1,0],[0.5,1,0],[0.75,1,0],[1,1,0],[0,0.25,0],[0,0.5,0],[0,0.75,0],[1,0.25,0],[1,0.5,0],[1,0.75,0]];outlineConnect=0;fontColor=#232F3E;fillColor=#E7157B;strokeColor=#ffffff;dashed=0;verticalLabelPosition=bottom;verticalAlign=top;align=center;html=1;fontSize=12;fontStyle=0;aspect=fixed;shape=mxgraph.aws4.resourceIcon;resIcon=mxgraph.aws4.sns;" vertex="1" parent="1">
          <mxGeometry x="-1650" y="160" width="78" height="78" as="geometry" />
        </mxCell>
      </root>
    </mxGraphModel>
  </diagram>
</mxfile>
